<svg version="1.1" id="Layer_1" xmlns="http://www.w3.org/2000/svg" xmlns:xlink="http://www.w3.org/1999/xlink" x="0px" y="0px"
	 width="100%" viewBox="0 0 1000 1000" enable-background="new 0 0 1000 1000" xml:space="preserve">
<path fill="#000000" opacity="1.000000" stroke="none" 
	d="
M1001.000000,544.000000 
	C1001.000000,696.262024 1001.000000,848.523987 1001.000000,1001.000000 
	C848.975952,1001.000000 696.951843,1001.000000 544.118896,1000.657227 
	C544.153442,999.878967 544.960632,999.164978 545.845703,999.049866 
	C559.119629,997.322571 572.552551,996.425354 585.651184,993.833008 
	C605.784485,989.848328 625.891418,985.424927 645.629089,979.842468 
	C661.909241,975.237915 678.015930,969.548340 693.514893,962.773438 
	C712.948486,954.278809 732.263245,945.179871 750.561340,934.510315 
	C770.134277,923.097473 788.788330,910.004639 807.218994,896.774963 
	C818.766907,888.485779 829.596375,879.054688 839.987061,869.323303 
	C862.887390,847.875793 884.515381,825.122131 902.725403,799.515137 
	C915.110962,782.098511 926.733032,764.059265 937.544434,745.622864 
	C951.245911,722.258118 962.467407,697.588867 971.451294,671.998901 
	C980.191589,647.102905 988.118103,621.947510 992.052673,595.748230 
	C994.496033,579.478149 996.664734,563.166809 999.067566,546.890442 
	C999.220520,545.854431 1000.333618,544.960205 1001.000000,544.000000 
z"/>
<path fill="#000000" opacity="1.000000" stroke="none" 
	d="
M458.000000,1001.000000 
	C305.738007,1001.000000 153.476013,1001.000000 1.000000,1001.000000 
	C1.000000,848.975952 1.000000,696.951843 1.345577,544.122559 
	C2.124692,544.162292 2.834913,544.971252 2.950254,545.857605 
	C4.677246,559.128479 5.594560,572.552979 8.162993,585.654907 
	C12.082198,605.647400 16.392435,625.626831 21.924852,645.219910 
	C26.609919,661.812012 32.414299,678.215881 39.264164,694.035950 
	C47.499763,713.056519 56.310265,731.992737 66.810516,749.823853 
	C78.316055,769.362122 91.551079,787.950439 104.950958,806.281250 
	C114.304398,819.076599 124.750237,831.162598 135.541138,842.792480 
	C146.025940,854.092529 157.284958,864.726196 168.739410,875.058960 
	C178.805939,884.139648 189.259186,892.881836 200.184113,900.897888 
	C213.648117,910.776855 227.524826,920.152100 241.676300,929.022095 
	C265.072601,943.686707 289.860901,955.746582 315.508118,965.942139 
	C337.899902,974.843506 360.791718,982.284180 384.307587,987.674988 
	C407.657288,993.027710 431.151489,997.491394 455.114929,999.077454 
	C456.114655,999.143616 457.040009,1000.333618 458.000000,1001.000000 
z"/>
<path fill="#000000" opacity="1.000000" stroke="none" 
	d="
M0.999996,458.000000 
	C1.000000,305.738007 1.000000,153.476028 1.000000,1.000000 
	C153.024017,1.000000 305.048126,1.000000 457.877380,1.345582 
	C457.837616,2.124702 457.028778,2.834951 456.142487,2.950270 
	C442.869385,4.677302 429.442627,5.594406 416.338501,8.163211 
	C396.348297,12.081889 376.371216,16.392382 356.780518,21.924479 
	C340.187988,26.609934 323.783508,32.414074 307.962982,39.264023 
	C288.943207,47.499168 270.008148,56.309849 252.177444,66.809120 
	C232.644180,78.310905 214.060425,91.541557 195.734406,104.937408 
	C182.938950,114.290550 170.860443,124.743546 159.221588,135.525558 
	C148.157913,145.774765 137.792648,156.827896 127.655861,168.012939 
	C118.417809,178.206314 109.378899,188.664719 101.177803,199.694550 
	C87.052124,218.692444 74.101479,238.477310 62.782364,259.359497 
	C50.560074,281.907898 39.564827,304.952393 30.966654,329.114655 
	C22.008389,354.288849 13.921657,379.717896 9.948830,406.245667 
	C7.511755,422.518707 5.336179,438.830872 2.932282,455.109100 
	C2.779281,456.145233 1.666354,457.039642 0.999996,458.000000 
z"/>
<path fill="#000000" opacity="1.000000" stroke="none" 
	d="
M544.000000,1.000008 
	C696.261963,1.000000 848.523987,1.000000 1001.000000,1.000000 
	C1001.000000,153.024017 1001.000000,305.048126 1000.654358,457.877319 
	C999.875244,457.837585 999.165100,457.028778 999.049866,456.142609 
	C997.322754,442.868896 996.425293,429.436279 993.832886,416.337891 
	C989.847473,396.200989 985.423645,376.090363 979.840698,356.349030 
	C975.236267,340.068024 969.499695,323.984650 962.782043,308.455048 
	C954.489868,289.285614 945.750488,270.142334 935.205872,252.159607 
	C923.741516,232.608261 910.452515,214.059219 897.063660,195.727112 
	C887.813416,183.061615 877.637878,170.937744 866.799194,159.601181 
	C853.762939,145.966064 840.057739,132.873352 825.763672,120.566002 
	C812.334656,109.003403 798.084656,98.314056 783.619751,88.052628 
	C758.941528,70.545982 732.534302,55.935947 704.712769,44.016659 
	C690.014465,37.719669 675.387756,30.938900 660.140625,26.316370 
	C638.967285,19.897179 617.373596,14.670028 595.708618,10.131709 
	C579.639038,6.765510 563.165649,5.335796 546.888550,2.932497 
	C545.853088,2.779614 544.959534,1.666450 544.000000,1.000008 
z"/>
<path fill="#FFA96A" opacity="1.000000" stroke="none" 
	d="
M543.531372,1.000008 
	C544.959534,1.666450 545.853088,2.779614 546.888550,2.932497 
	C563.165649,5.335796 579.639038,6.765510 595.708618,10.131709 
	C617.373596,14.670028 638.967285,19.897179 660.140625,26.316370 
	C675.387756,30.938900 690.014465,37.719669 704.712769,44.016659 
	C732.534302,55.935947 758.941528,70.545982 783.619751,88.052628 
	C798.084656,98.314056 812.334656,109.003403 825.763672,120.566002 
	C840.057739,132.873352 853.762939,145.966064 866.799194,159.601181 
	C877.637878,170.937744 887.813416,183.061615 897.063660,195.727112 
	C910.452515,214.059219 923.741516,232.608261 935.205872,252.159607 
	C945.750488,270.142334 954.489868,289.285614 962.782043,308.455048 
	C969.499695,323.984650 975.236267,340.068024 979.840698,356.349030 
	C985.423645,376.090363 989.847473,396.200989 993.832886,416.337891 
	C996.425293,429.436279 997.322754,442.868896 999.049866,456.142609 
	C999.165100,457.028778 999.875244,457.837585 1000.654358,458.341187 
	C1001.000000,486.354218 1001.000000,514.708435 1001.000000,543.531372 
	C1000.333618,544.960205 999.220520,545.854431 999.067566,546.890442 
	C996.664734,563.166809 994.496033,579.478149 992.052673,595.748230 
	C988.118103,621.947510 980.191589,647.102905 971.451294,671.998901 
	C962.467407,697.588867 951.245911,722.258118 937.544434,745.622864 
	C926.733032,764.059265 915.110962,782.098511 902.725403,799.515137 
	C884.515381,825.122131 862.887390,847.875793 839.987061,869.323303 
	C829.596375,879.054688 818.766907,888.485779 807.218994,896.774963 
	C788.788330,910.004639 770.134277,923.097473 750.561340,934.510315 
	C732.263245,945.179871 712.948486,954.278809 693.514893,962.773438 
	C678.015930,969.548340 661.909241,975.237915 645.629089,979.842468 
	C625.891418,985.424927 605.784485,989.848328 585.651184,993.833008 
	C572.552551,996.425354 559.119629,997.322571 545.845703,999.049866 
	C544.960632,999.164978 544.153442,999.878967 543.655029,1000.657227 
	C515.645752,1001.000000 487.291534,1001.000000 458.468658,1001.000000 
	C457.040009,1000.333618 456.114655,999.143616 455.114929,999.077454 
	C431.151489,997.491394 407.657288,993.027710 384.307587,987.674988 
	C360.791718,982.284180 337.899902,974.843506 315.508118,965.942139 
	C289.860901,955.746582 265.072601,943.686707 241.676300,929.022095 
	C227.524826,920.152100 213.648117,910.776855 200.184113,900.897888 
	C189.259186,892.881836 178.805939,884.139648 168.739410,875.058960 
	C157.284958,864.726196 146.025940,854.092529 135.541138,842.792480 
	C124.750237,831.162598 114.304398,819.076599 104.950958,806.281250 
	C91.551079,787.950439 78.316055,769.362122 66.810516,749.823853 
	C56.310265,731.992737 47.499763,713.056519 39.264164,694.035950 
	C32.414299,678.215881 26.609919,661.812012 21.924852,645.219910 
	C16.392435,625.626831 12.082198,605.647400 8.162993,585.654907 
	C5.594560,572.552979 4.677246,559.128479 2.950254,545.857605 
	C2.834913,544.971252 2.124692,544.162292 1.345577,543.658691 
	C1.000000,515.645752 1.000000,487.291534 0.999996,458.468658 
	C1.666354,457.039642 2.779281,456.145233 2.932282,455.109100 
	C5.336179,438.830872 7.511755,422.518707 9.948830,406.245667 
	C13.921657,379.717896 22.008389,354.288849 30.966654,329.114655 
	C39.564827,304.952393 50.560074,281.907898 62.782364,259.359497 
	C74.101479,238.477310 87.052124,218.692444 101.177803,199.694550 
	C109.378899,188.664719 118.417809,178.206314 127.655861,168.012939 
	C137.792648,156.827896 148.157913,145.774765 159.221588,135.525558 
	C170.860443,124.743546 182.938950,114.290550 195.734406,104.937408 
	C214.060425,91.541557 232.644180,78.310905 252.177444,66.809120 
	C270.008148,56.309849 288.943207,47.499168 307.962982,39.264023 
	C323.783508,32.414074 340.187988,26.609934 356.780518,21.924479 
	C376.371216,16.392382 396.348297,12.081889 416.338501,8.163211 
	C429.442627,5.594406 442.869385,4.677302 456.142487,2.950270 
	C457.028778,2.834951 457.837616,2.124702 458.341248,1.345582 
	C486.354218,1.000000 514.708435,1.000000 543.531372,1.000008 
M213.475937,111.016266 
	C197.735428,124.092979 181.740005,136.879074 166.360733,150.367630 
	C158.541290,157.225754 151.651550,165.186737 144.664032,172.939819 
	C135.761642,182.817581 126.716896,192.625153 118.566185,203.110260 
	C101.415024,225.173584 86.117325,248.512955 72.981796,273.215546 
	C61.256744,295.265594 51.171391,318.061310 43.038559,341.666748 
	C31.756821,374.411835 23.350485,407.871521 20.044468,442.432495 
	C18.370295,459.934265 16.639004,477.479706 16.211481,495.036530 
	C15.850365,509.866180 16.924704,524.773499 18.117538,539.585754 
	C19.217579,553.245728 21.242062,566.835083 22.999231,580.437439 
	C25.936182,603.172485 31.751606,625.275085 38.628674,647.061951 
	C47.951664,676.597717 60.039375,704.993896 74.978302,732.185608 
	C88.463058,756.730469 103.731407,780.016235 121.275650,801.867981 
	C136.888947,821.314819 153.043533,840.213867 172.044113,856.472534 
	C184.508102,867.137878 196.897202,877.911133 209.730576,888.119690 
	C230.107727,904.329041 252.244308,917.920105 275.292542,929.959351 
	C286.340515,935.730225 297.766846,940.789673 309.106415,945.986755 
	C331.350006,956.181335 354.512787,963.793701 378.149200,969.976074 
	C399.388245,975.531433 420.832611,980.089233 442.751129,982.026245 
	C458.282440,983.398743 473.801086,985.142883 489.364899,985.841431 
	C500.252502,986.330078 511.212463,985.458984 522.129700,984.965393 
	C533.488892,984.451843 544.936157,984.385559 556.164124,982.823669 
	C572.885071,980.497498 589.489197,977.244690 606.068420,974.004517 
	C641.990356,966.984070 676.119324,954.501587 709.101257,938.900940 
	C732.444702,927.859375 755.029480,915.321045 775.836304,899.935425 
	C791.801941,888.129517 807.790588,876.260620 822.835815,863.333679 
	C834.844666,853.015686 845.712097,841.310059 856.591797,829.754944 
	C865.823059,819.950562 874.771912,809.814758 883.096741,799.236145 
	C900.698303,776.868896 916.174744,753.033142 929.517029,727.885864 
	C941.594788,705.121826 951.803101,681.507812 960.026367,657.064697 
	C970.707275,625.316223 978.703735,592.938904 981.956909,559.539551 
	C983.629150,542.370850 985.383484,525.157410 985.786560,507.933411 
	C986.141418,492.771667 984.771484,477.561615 983.959961,462.383728 
	C983.513062,454.023529 983.139465,445.609558 981.862366,437.354523 
	C979.578491,422.592560 977.213379,407.799072 973.853577,393.256439 
	C965.901672,358.837799 954.478271,325.559052 939.234985,293.640930 
	C927.825195,269.749969 914.742188,246.821136 899.558960,225.122696 
	C883.858459,202.684998 866.642578,181.457901 847.367554,161.997238 
	C838.189087,152.730423 828.507507,143.933151 818.700073,135.326309 
	C809.238403,127.022903 799.804138,118.542976 789.493042,111.386581 
	C773.544434,100.317482 757.004395,90.073784 740.454468,79.904251 
	C715.222778,64.399910 688.145569,52.741924 660.244629,43.035915 
	C630.022461,32.522427 599.129089,24.581503 567.258545,21.018414 
	C549.834412,19.070414 532.378906,17.139635 514.883850,16.182497 
	C503.344208,15.551170 491.695343,16.421062 480.120209,17.064896 
	C467.331329,17.776239 454.500824,18.463757 441.815338,20.128614 
	C425.380402,22.285551 408.891174,24.605181 392.744812,28.264517 
	C358.939636,35.925968 326.270355,47.252285 294.914368,62.075321 
	C266.382446,75.563339 239.273117,91.525612 213.475937,111.016266 
z"/>
<path fill="#000000" opacity="1.000000" stroke="none" 
	d="
M213.736969,110.759903 
	C239.273117,91.525612 266.382446,75.563339 294.914368,62.075321 
	C326.270355,47.252285 358.939636,35.925968 392.744812,28.264517 
	C408.891174,24.605181 425.380402,22.285551 441.815338,20.128614 
	C454.500824,18.463757 467.331329,17.776239 480.120209,17.064896 
	C491.695343,16.421062 503.344208,15.551170 514.883850,16.182497 
	C532.378906,17.139635 549.834412,19.070414 567.258545,21.018414 
	C599.129089,24.581503 630.022461,32.522427 660.244629,43.035915 
	C688.145569,52.741924 715.222778,64.399910 740.454468,79.904251 
	C757.004395,90.073784 773.544434,100.317482 789.493042,111.386581 
	C799.804138,118.542976 809.238403,127.022903 818.700073,135.326309 
	C828.507507,143.933151 838.189087,152.730423 847.367554,161.997238 
	C866.642578,181.457901 883.858459,202.684998 899.558960,225.122696 
	C914.742188,246.821136 927.825195,269.749969 939.234985,293.640930 
	C954.478271,325.559052 965.901672,358.837799 973.853577,393.256439 
	C977.213379,407.799072 979.578491,422.592560 981.862366,437.354523 
	C983.139465,445.609558 983.513062,454.023529 983.959961,462.383728 
	C984.771484,477.561615 986.141418,492.771667 985.786560,507.933411 
	C985.383484,525.157410 983.629150,542.370850 981.956909,559.539551 
	C978.703735,592.938904 970.707275,625.316223 960.026367,657.064697 
	C951.803101,681.507812 941.594788,705.121826 929.517029,727.885864 
	C916.174744,753.033142 900.698303,776.868896 883.096741,799.236145 
	C874.771912,809.814758 865.823059,819.950562 856.591797,829.754944 
	C845.712097,841.310059 834.844666,853.015686 822.835815,863.333679 
	C807.790588,876.260620 791.801941,888.129517 775.836304,899.935425 
	C755.029480,915.321045 732.444702,927.859375 709.101257,938.900940 
	C676.119324,954.501587 641.990356,966.984070 606.068420,974.004517 
	C589.489197,977.244690 572.885071,980.497498 556.164124,982.823669 
	C544.936157,984.385559 533.488892,984.451843 522.129700,984.965393 
	C511.212463,985.458984 500.252502,986.330078 489.364899,985.841431 
	C473.801086,985.142883 458.282440,983.398743 442.751129,982.026245 
	C420.832611,980.089233 399.388245,975.531433 378.149200,969.976074 
	C354.512787,963.793701 331.350006,956.181335 309.106415,945.986755 
	C297.766846,940.789673 286.340515,935.730225 275.292542,929.959351 
	C252.244308,917.920105 230.107727,904.329041 209.730576,888.119690 
	C196.897202,877.911133 184.508102,867.137878 172.044113,856.472534 
	C153.043533,840.213867 136.888947,821.314819 121.275650,801.867981 
	C103.731407,780.016235 88.463058,756.730469 74.978302,732.185608 
	C60.039375,704.993896 47.951664,676.597717 38.628674,647.061951 
	C31.751606,625.275085 25.936182,603.172485 22.999231,580.437439 
	C21.242062,566.835083 19.217579,553.245728 18.117538,539.585754 
	C16.924704,524.773499 15.850365,509.866180 16.211481,495.036530 
	C16.639004,477.479706 18.370295,459.934265 20.044468,442.432495 
	C23.350485,407.871521 31.756821,374.411835 43.038559,341.666748 
	C51.171391,318.061310 61.256744,295.265594 72.981796,273.215546 
	C86.117325,248.512955 101.415024,225.173584 118.566185,203.110260 
	C126.716896,192.625153 135.761642,182.817581 144.664032,172.939819 
	C151.651550,165.186737 158.541290,157.225754 166.360733,150.367630 
	C181.740005,136.879074 197.735428,124.092979 213.736969,110.759903 
M210.019470,883.527588 
	C217.836639,889.056885 225.531494,894.769531 233.494965,900.079407 
	C253.737076,913.576355 274.580627,926.077454 296.875000,935.919067 
	C310.484314,941.926758 324.178009,947.821106 338.133850,952.949829 
	C368.487976,964.104919 399.650574,972.241333 431.844604,976.025208 
	C446.629089,977.762817 461.404938,980.389832 476.232025,980.770813 
	C502.857910,981.455200 529.572937,982.026306 556.065491,977.987610 
	C573.111145,975.389099 590.341431,973.551697 607.121033,969.749573 
	C644.119080,961.366150 679.857178,948.986267 713.826294,931.962769 
	C737.778809,919.959106 761.060120,906.695007 782.274292,890.210571 
	C798.144836,877.878357 814.160522,865.623840 829.018738,852.131287 
	C841.606628,840.700317 853.222900,828.045227 864.186890,815.020813 
	C876.763367,800.080872 888.666687,784.503113 899.918884,768.537415 
	C914.412720,747.972168 926.758301,726.046082 936.936096,703.000183 
	C942.612732,690.146423 948.130554,677.188599 952.942078,663.993958 
	C962.553406,637.637085 970.254944,610.715637 974.020691,582.829895 
	C976.533630,564.221619 979.985046,545.613464 980.689453,526.917603 
	C981.704224,499.986267 982.160828,472.915100 977.997925,446.088409 
	C975.352295,429.039612 973.527039,411.801605 969.759766,395.001404 
	C961.525757,358.281525 949.188293,322.850494 932.449402,289.101624 
	C921.851196,267.733582 910.370178,246.750275 895.975769,227.672913 
	C881.911133,209.032455 867.592896,190.496552 852.128662,173.027817 
	C840.861816,160.300446 828.054260,148.784943 815.020630,137.813675 
	C800.066040,125.225342 784.437012,113.364822 768.495667,102.040344 
	C747.978027,87.464996 725.985413,75.254471 702.957336,65.059250 
	C690.107666,59.370342 677.139404,53.873901 663.946533,49.051208 
	C635.744995,38.742043 606.892578,30.747353 577.015137,26.983030 
	C559.982849,24.837099 542.951599,21.831018 525.852173,21.267719 
	C499.240845,20.391071 472.518555,19.964918 446.026947,24.009024 
	C428.974396,26.612192 411.737061,28.438969 394.944000,32.219337 
	C357.747223,40.592873 321.684631,52.823013 287.785004,70.312683 
	C267.082947,80.993401 246.874969,92.981239 227.737228,106.246208 
	C208.596664,119.513138 190.478882,134.439133 173.023209,149.892212 
	C160.299789,161.155930 148.781738,173.953156 137.812637,186.981369 
	C125.227470,201.929016 113.348061,217.537201 102.057991,233.492386 
	C87.515404,254.044083 75.252075,276.026001 65.054863,299.070587 
	C59.370823,311.915894 53.883934,324.880127 49.045460,338.061371 
	C38.699127,366.247467 30.827948,395.124115 26.983843,424.975037 
	C24.834053,441.668976 21.983328,458.358795 21.265820,475.128235 
	C20.450901,494.174316 21.006247,513.348267 22.193382,532.390137 
	C23.259560,549.491760 25.108831,566.652039 28.213902,583.491150 
	C31.876677,603.354736 36.351837,623.174133 42.163574,642.505005 
	C47.592072,660.561157 54.443470,678.303406 62.115417,695.539856 
	C70.129517,713.545105 79.035385,731.277893 89.097511,748.211060 
	C98.612602,764.223694 109.686630,779.381165 120.911163,794.285034 
	C130.452667,806.954224 140.699295,819.178345 151.501114,830.792908 
	C169.259888,849.887756 188.658203,867.283936 210.019470,883.527588 
z"/>
<path fill="#FFA96A" opacity="1.000000" stroke="none" 
	d="
M209.764313,883.266418 
	C188.658203,867.283936 169.259888,849.887756 151.501114,830.792908 
	C140.699295,819.178345 130.452667,806.954224 120.911163,794.285034 
	C109.686630,779.381165 98.612602,764.223694 89.097511,748.211060 
	C79.035385,731.277893 70.129517,713.545105 62.115417,695.539856 
	C54.443470,678.303406 47.592072,660.561157 42.163574,642.505005 
	C36.351837,623.174133 31.876677,603.354736 28.213902,583.491150 
	C25.108831,566.652039 23.259560,549.491760 22.193382,532.390137 
	C21.006247,513.348267 20.450901,494.174316 21.265820,475.128235 
	C21.983328,458.358795 24.834053,441.668976 26.983843,424.975037 
	C30.827948,395.124115 38.699127,366.247467 49.045460,338.061371 
	C53.883934,324.880127 59.370823,311.915894 65.054863,299.070587 
	C75.252075,276.026001 87.515404,254.044083 102.057991,233.492386 
	C113.348061,217.537201 125.227470,201.929016 137.812637,186.981369 
	C148.781738,173.953156 160.299789,161.155930 173.023209,149.892212 
	C190.478882,134.439133 208.596664,119.513138 227.737228,106.246208 
	C246.874969,92.981239 267.082947,80.993401 287.785004,70.312683 
	C321.684631,52.823013 357.747223,40.592873 394.944000,32.219337 
	C411.737061,28.438969 428.974396,26.612192 446.026947,24.009024 
	C472.518555,19.964918 499.240845,20.391071 525.852173,21.267719 
	C542.951599,21.831018 559.982849,24.837099 577.015137,26.983030 
	C606.892578,30.747353 635.744995,38.742043 663.946533,49.051208 
	C677.139404,53.873901 690.107666,59.370342 702.957336,65.059250 
	C725.985413,75.254471 747.978027,87.464996 768.495667,102.040344 
	C784.437012,113.364822 800.066040,125.225342 815.020630,137.813675 
	C828.054260,148.784943 840.861816,160.300446 852.128662,173.027817 
	C867.592896,190.496552 881.911133,209.032455 895.975769,227.672913 
	C910.370178,246.750275 921.851196,267.733582 932.449402,289.101624 
	C949.188293,322.850494 961.525757,358.281525 969.759766,395.001404 
	C973.527039,411.801605 975.352295,429.039612 977.997925,446.088409 
	C982.160828,472.915100 981.704224,499.986267 980.689453,526.917603 
	C979.985046,545.613464 976.533630,564.221619 974.020691,582.829895 
	C970.254944,610.715637 962.553406,637.637085 952.942078,663.993958 
	C948.130554,677.188599 942.612732,690.146423 936.936096,703.000183 
	C926.758301,726.046082 914.412720,747.972168 899.918884,768.537415 
	C888.666687,784.503113 876.763367,800.080872 864.186890,815.020813 
	C853.222900,828.045227 841.606628,840.700317 829.018738,852.131287 
	C814.160522,865.623840 798.144836,877.878357 782.274292,890.210571 
	C761.060120,906.695007 737.778809,919.959106 713.826294,931.962769 
	C679.857178,948.986267 644.119080,961.366150 607.121033,969.749573 
	C590.341431,973.551697 573.111145,975.389099 556.065491,977.987610 
	C529.572937,982.026306 502.857910,981.455200 476.232025,980.770813 
	C461.404938,980.389832 446.629089,977.762817 431.844604,976.025208 
	C399.650574,972.241333 368.487976,964.104919 338.133850,952.949829 
	C324.178009,947.821106 310.484314,941.926758 296.875000,935.919067 
	C274.580627,926.077454 253.737076,913.576355 233.494965,900.079407 
	C225.531494,894.769531 217.836639,889.056885 209.764313,883.266418 
M692.307068,590.946594 
	C676.106689,581.351746 658.779419,583.278320 647.307678,595.950012 
	C632.711548,612.072754 632.666443,644.699768 647.344971,660.684753 
	C654.751709,668.750671 664.170898,672.545959 674.816833,669.984192 
	C681.637939,668.342896 687.915588,664.443481 694.627441,661.471985 
	C694.991577,662.647217 695.548828,665.049377 696.509399,667.277649 
	C696.952698,668.305847 698.240051,669.765076 699.048950,669.706543 
	C703.086914,669.414062 707.093140,668.682678 711.742737,668.014954 
	C706.397278,656.772949 706.915222,645.578491 706.929626,634.428894 
	C706.966309,606.129578 706.941833,577.830139 706.941833,549.530762 
	C706.941833,547.590149 706.941833,545.649536 706.941833,543.479858 
	C701.404846,543.479858 696.545166,543.479858 692.960205,543.479858 
	C692.960205,559.586365 692.960205,575.311890 692.991394,591.005981 
	C692.991394,591.005981 693.020264,590.972656 692.307068,590.946594 
M546.997192,314.462097 
	C573.442139,317.867493 599.887085,321.272888 627.293335,324.802094 
	C623.493652,318.065979 620.150024,312.344849 617.003784,306.517151 
	C610.786499,295.001160 601.373657,288.074188 588.638245,284.748505 
	C500.901611,261.837524 413.224030,238.700302 325.522064,215.656387 
	C324.250183,215.322189 322.909180,215.251038 321.600433,215.057114 
	C324.210052,219.745972 327.124481,223.579880 330.490295,226.964981 
	C355.316956,251.933853 383.535858,272.489594 414.067139,289.818573 
	C422.218048,294.444916 431.136017,299.123077 440.198181,300.492371 
	C475.395538,305.810730 510.792755,309.806061 546.997192,314.462097 
M411.837311,325.659393 
	C424.272217,334.297882 436.441559,343.353363 449.202332,351.480164 
	C469.958466,364.698883 491.932526,372.153107 517.544373,370.359772 
	C558.212769,367.512146 599.052734,367.116821 639.819092,365.656586 
	C642.118591,365.574219 644.409119,365.242706 648.329346,364.874451 
	C642.856018,356.351807 638.563843,348.236267 632.814087,341.335144 
	C630.048340,338.015564 624.713562,335.812073 620.231018,335.120544 
	C598.366943,331.747772 576.404602,329.004913 554.464600,326.133789 
	C506.127350,319.808105 457.783722,313.531342 409.439819,307.256683 
	C402.928131,306.411499 396.399902,305.693634 389.879333,304.916779 
	C389.610474,305.388000 389.341644,305.859253 389.072815,306.330475 
	C396.473907,312.625549 403.875031,318.920654 411.837311,325.659393 
M655.856079,395.458618 
	C657.520630,395.028656 659.185181,394.598694 661.209351,394.075836 
	C659.146240,390.204834 657.363831,387.015594 655.725525,383.753937 
	C652.460693,377.254181 647.020020,375.092041 640.072144,375.426178 
	C614.636719,376.649353 589.198730,377.821503 563.758484,378.940338 
	C530.004028,380.424835 496.246002,381.827942 462.491272,383.306763 
	C458.963806,383.461304 455.448364,383.890778 451.050781,384.267853 
	C452.497894,385.425781 453.076569,385.997742 453.751617,386.413116 
	C475.415802,399.743622 498.288300,410.358521 522.990295,416.703094 
	C532.913574,419.251831 542.862366,419.715515 553.102600,417.455719 
	C587.042664,409.965668 621.078247,402.907959 655.856079,395.458618 
M225.955490,561.513550 
	C225.955490,557.424561 225.955490,553.335571 225.955490,549.206726 
	C219.823654,549.206726 214.556442,549.206726 209.229721,549.206726 
	C209.744186,555.778625 210.602188,562.017761 210.654205,568.263550 
	C210.830490,589.426575 210.721298,610.591980 210.721603,631.756470 
	C210.721771,642.588684 210.642685,653.422180 210.818909,664.251587 
	C210.842514,665.701599 212.040146,668.286072 212.896057,668.373779 
	C217.101379,668.804504 221.374908,668.569275 226.070343,668.569275 
	C226.070343,647.840332 226.070343,627.944885 226.070343,606.796082 
	C227.977951,609.143616 229.123428,610.475769 230.185074,611.871643 
	C243.600006,629.510315 256.987946,647.169617 270.437134,664.782104 
	C271.510132,666.187317 272.914673,668.258545 274.284698,668.357056 
	C279.931030,668.763062 285.623474,668.527039 292.291138,668.527039 
	C290.233063,665.755615 288.965485,664.024536 287.673218,662.312134 
	C273.621918,643.692078 259.688538,624.980652 245.408524,606.537598 
	C242.598236,602.908142 243.117874,600.832031 245.898071,597.760864 
	C257.863464,584.543396 269.627502,571.143494 281.453033,557.799561 
	C283.815735,555.133484 286.126801,552.421631 289.200867,548.879089 
	C285.612610,548.879089 283.258942,549.192139 281.020111,548.818054 
	C275.195282,547.844849 271.537567,550.591675 267.899261,554.806030 
	C255.378311,569.309265 242.506226,583.509094 229.819443,597.870117 
	C228.817291,599.004578 228.211349,600.489014 227.421249,601.810791 
	C226.932648,601.367737 226.444046,600.924683 225.955444,600.481628 
	C225.955444,587.824463 225.955444,575.167297 225.955490,561.513550 
M641.200134,407.048615 
	C640.879517,410.518341 640.381104,413.982269 640.267456,417.458740 
	C639.588135,438.243408 638.932312,459.029358 638.409790,479.818420 
	C638.208191,487.839935 638.376892,495.870728 638.376892,505.349609 
	C643.989502,500.169495 649.478882,496.056427 653.783691,490.945648 
	C665.262024,477.318237 672.711304,461.243134 679.925964,445.129944 
	C683.366577,437.445679 682.331238,429.812531 677.927612,422.681763 
	C674.166138,416.590729 670.374146,410.516022 666.442444,404.534760 
	C665.701416,403.407440 664.270508,402.045624 663.106628,401.996002 
	C655.610413,401.676361 648.144775,401.908722 641.200134,407.048615 
M610.130005,655.709290 
	C603.390991,658.493958 596.435730,660.106812 589.173279,658.518494 
	C577.687805,656.006653 570.695862,645.947327 569.667419,631.460022 
	C569.387512,627.517334 570.475403,626.141785 574.509033,626.213623 
	C585.999146,626.418396 597.495361,626.284058 608.989136,626.283752 
	C623.032715,626.283386 623.175293,626.271118 621.911316,611.945496 
	C620.978516,601.373108 616.578552,592.692017 606.614990,587.809204 
	C594.500061,581.872131 578.084290,584.461487 568.449829,593.908447 
	C557.409851,604.733643 554.040466,618.382324 555.145691,633.271118 
	C556.721741,654.502869 569.647217,668.678162 589.348511,670.486023 
	C600.571472,671.515869 611.057556,668.818787 620.028198,661.616943 
	C616.428589,653.275635 616.209778,653.133301 610.130005,655.709290 
M299.091095,651.285828 
	C311.204987,672.644958 344.635406,678.064758 358.790955,660.964478 
	C355.013702,653.436890 355.020691,653.455505 347.206146,656.390930 
	C345.497955,657.032654 343.743805,657.587158 341.970612,658.015076 
	C325.117401,662.082092 312.503418,653.985168 309.231110,636.996338 
	C308.885620,635.202637 308.930450,633.327942 308.521606,631.553589 
	C307.626648,627.669739 308.828918,626.139221 313.014252,626.212524 
	C324.832703,626.419617 336.657135,626.283813 348.479218,626.283630 
	C361.831238,626.283386 362.004150,626.269287 360.891052,612.804504 
	C359.940552,601.306458 355.384216,591.757080 344.019379,587.163879 
	C328.159332,580.753845 310.582153,586.307739 301.586945,600.913025 
	C291.792908,616.815186 291.372223,633.566650 299.091095,651.285828 
M444.068054,663.301208 
	C444.045624,645.805908 444.260162,628.306274 443.934540,610.816589 
	C443.604797,593.107605 433.106018,583.047363 416.339264,585.314270 
	C410.091339,586.158936 404.273865,590.339050 398.324554,593.135315 
	C396.806274,593.848999 395.533783,595.085693 393.976318,596.205811 
	C390.447052,584.905823 387.402130,583.600647 376.971893,587.922485 
	C384.913635,614.356995 378.809021,641.559143 381.582336,668.664734 
	C383.768005,668.664734 385.737274,668.664795 387.706543,668.664734 
	C394.564087,668.664490 394.572235,668.664429 394.574341,661.947205 
	C394.579529,645.284851 394.496582,628.621582 394.678528,611.961182 
	C394.701141,609.887512 395.506165,606.956665 396.991394,605.927063 
	C401.449402,602.836426 406.157745,599.665833 411.251129,598.023132 
	C422.417603,594.421692 429.520966,599.298584 429.981262,610.919922 
	C430.626984,627.222839 430.488129,643.555908 430.763611,659.874817 
	C430.924622,669.413818 428.737244,668.520264 440.007568,668.721619 
	C443.464722,668.783386 444.452759,667.313904 444.068054,663.301208 
M519.813232,608.213257 
	C520.018555,612.868225 520.374451,617.522400 520.400879,622.178406 
	C520.480347,636.164490 520.354065,650.152344 520.544312,664.136353 
	C520.564819,665.639221 521.959229,668.241150 523.018250,668.407166 
	C526.500793,668.953186 530.122375,668.612610 533.852112,668.612610 
	C533.852112,648.071533 534.510742,628.410645 533.652588,608.816162 
	C532.908936,591.835327 521.985168,582.804260 505.786591,585.325562 
	C499.687775,586.274780 494.052155,590.331299 488.272430,593.110779 
	C486.749420,593.843140 485.476044,595.094788 483.915253,596.234131 
	C480.384735,584.827087 477.703125,583.661194 466.870239,587.909058 
	C474.868713,614.307434 468.785919,641.493652 471.527771,668.665283 
	C473.811829,668.665283 475.980225,668.401306 478.060638,668.717102 
	C483.302338,669.512939 484.459015,667.249634 484.370422,662.306274 
	C484.072083,645.660889 484.181915,629.006165 484.352203,612.357239 
	C484.373657,610.260498 485.057007,607.212891 486.514404,606.261597 
	C491.600708,602.941711 496.886688,599.468933 502.605408,597.682739 
	C511.454376,594.919067 516.824158,598.495605 519.813232,608.213257 
M726.974060,695.850464 
	C726.974060,698.449524 726.974060,701.048523 726.974060,703.596252 
	C737.080811,705.455994 745.396179,702.894470 750.586914,695.097412 
	C756.158752,686.727966 761.206970,677.726196 764.751892,668.345886 
	C774.225464,643.277405 782.775818,617.859863 791.673096,592.574036 
	C792.253357,590.924927 792.664368,589.216248 793.238220,587.246765 
	C791.446716,587.085876 790.301453,586.883240 789.158630,586.895996 
	C778.966614,587.009216 781.270630,585.663818 778.127808,594.600830 
	C772.273499,611.248169 766.720764,628.001526 761.022827,644.704041 
	C760.579407,646.003967 759.982605,647.251587 759.076660,649.444336 
	C758.141479,646.961914 757.532471,645.468567 757.012024,643.945068 
	C750.984619,626.300049 745.033508,608.628296 738.849182,591.038574 
	C738.271362,589.395020 736.388245,587.318542 734.856079,587.079712 
	C731.150513,586.501953 727.294006,586.892151 722.856873,586.892151 
	C723.653442,589.232361 724.193298,590.941406 724.813110,592.620911 
	C733.460266,616.050476 742.160461,639.460632 750.705017,662.927490 
	C751.511230,665.141602 752.250488,668.059143 751.470215,670.039062 
	C749.472717,675.108154 746.908142,680.026733 743.994629,684.642090 
	C740.839539,689.640076 736.160339,692.681458 729.990723,693.118896 
	C728.964661,693.191589 728.013611,694.321777 726.974060,695.850464 
M599.252686,419.992310 
	C596.123047,432.387360 592.947754,444.771118 589.878662,457.181122 
	C587.582703,466.465179 585.423645,475.783112 583.154968,485.289734 
	C608.860474,481.949310 637.138977,437.031281 631.382019,408.728821 
	C625.733765,409.490509 620.007080,410.132874 614.327942,411.064636 
	C608.469788,412.025757 602.971313,413.822083 599.252686,419.992310 
M564.755859,457.281342 
	C577.801331,447.491791 586.674011,435.045685 590.333435,418.095673 
	C577.789062,420.876770 565.966370,423.436737 559.242615,434.102661 
	C553.179626,443.720398 548.719727,454.348755 543.044373,465.533264 
	C551.892029,464.820160 558.197937,461.709686 564.755859,457.281342 
M581.070801,759.407349 
	C584.125183,751.478821 581.397278,745.427795 573.711182,744.391113 
	C568.869934,743.738220 563.868958,744.269348 558.329102,744.269348 
	C558.329102,754.770142 558.244690,764.884155 558.466187,774.991516 
	C558.487183,775.949890 560.459229,777.632446 561.465027,777.588684 
	C562.491699,777.544067 563.993530,775.927917 564.302124,774.743164 
	C564.790344,772.869019 564.192017,770.730164 564.561829,768.800720 
	C564.822144,767.442566 565.883179,765.220520 566.662598,765.187744 
	C568.366028,765.116028 570.673828,765.707947 571.723572,766.911011 
	C573.425354,768.861389 574.532532,771.435181 575.497437,773.899841 
	C577.018616,777.785278 579.534302,778.592407 583.692078,777.165894 
	C581.235962,772.487061 578.954773,768.141479 576.929321,764.282959 
	C578.473877,762.518921 579.566589,761.270935 581.070801,759.407349 
M620.579651,777.749451 
	C620.627441,771.438904 620.644653,765.127930 620.733765,758.817993 
	C620.792358,754.665833 621.139160,750.409729 614.714844,753.569519 
	C613.959412,753.941101 612.582275,752.793640 611.494690,752.796875 
	C609.084290,752.803955 606.379517,752.452942 604.324097,753.398499 
	C599.454407,755.638550 598.516541,760.431946 598.516479,765.204834 
	C598.516357,769.986877 599.521484,774.717590 604.385742,776.983093 
	C606.331787,777.889404 608.859924,777.702637 611.123413,777.705566 
	C612.272766,777.707092 613.423096,777.025330 614.790710,776.581848 
	C613.658325,782.716003 610.639465,784.163635 605.054688,782.060913 
	C603.689209,781.546814 601.944458,782.040039 600.374023,782.070129 
	C607.675903,790.709534 617.769348,788.219238 620.579651,777.749451 
M418.508881,753.624146 
	C417.253693,753.337830 415.981567,753.110352 414.746307,752.754700 
	C410.125122,751.424194 406.093811,752.970459 403.629913,757.066406 
	C400.937317,761.542542 401.218597,770.092285 404.275391,774.231140 
	C407.884613,779.117981 412.638855,778.633789 417.626953,776.633484 
	C417.350647,782.706787 414.261169,784.219299 408.026123,781.877502 
	C406.950500,781.473450 405.524414,782.002563 404.260193,782.100647 
	C404.765442,783.298706 404.927765,784.989990 405.829865,785.617126 
	C413.338898,790.836914 423.413086,786.015198 423.815643,776.932495 
	C424.117462,770.123108 423.792145,763.288086 423.933258,756.468445 
	C424.010803,752.720459 422.163239,752.273743 418.508881,753.624146 
M216.838928,757.979431 
	C211.415680,756.283936 215.163864,752.405518 214.207657,748.915039 
	C218.761978,748.915039 222.716370,748.848999 226.667465,748.935059 
	C230.083725,749.009399 230.630997,747.382690 229.489899,744.316895 
	C222.610519,744.316895 215.720535,744.316895 208.221512,744.316895 
	C208.221512,754.891296 208.152206,765.158508 208.353851,775.420471 
	C208.369888,776.236511 210.231689,777.654419 211.286667,777.703735 
	C216.434067,777.944641 221.606659,777.967468 226.751434,777.701477 
	C227.918716,777.641113 229.010712,776.124573 230.137344,775.278320 
	C228.964767,774.511169 227.832031,773.166443 226.612335,773.082336 
	C222.561401,772.802795 218.479172,772.976746 214.532379,772.976746 
	C214.532379,769.125244 214.532379,766.214294 214.532379,762.828064 
	C217.738434,762.828064 220.541382,762.858459 223.343445,762.821289 
	C228.184204,762.757141 228.183975,762.739563 227.090073,757.995239 
	C224.041412,757.995239 220.900818,757.995239 216.838928,757.979431 
M686.560181,770.436768 
	C685.975525,766.358765 687.617676,764.529724 691.814026,765.095398 
	C692.951355,765.248718 694.139099,765.107544 695.296875,765.016113 
	C701.566833,764.520935 705.534302,760.745667 705.749268,755.105408 
	C705.959167,749.600952 702.147339,744.928772 696.113464,744.316528 
	C691.207092,743.818665 686.209900,744.215454 680.539917,744.215454 
	C680.539917,754.759094 680.470459,765.020508 680.667603,775.276855 
	C680.683960,776.126892 682.501404,777.587646 683.488281,777.592957 
	C684.482544,777.598328 685.881775,776.327576 686.374329,775.274841 
	C686.888733,774.175293 686.533508,772.668884 686.560181,770.436768 
M646.908020,760.058044 
	C645.023621,752.052124 642.100586,750.810120 631.780396,754.028687 
	C631.780396,750.108643 631.780396,746.352295 631.780396,742.718018 
	C627.806274,741.417236 625.959106,742.070129 626.039246,746.274231 
	C626.216919,755.597534 625.992554,764.929077 626.227234,774.249878 
	C626.257507,775.452820 628.036316,776.611755 629.005188,777.791077 
	C629.985352,776.628845 631.702209,775.531250 631.811035,774.292419 
	C632.173889,770.160034 631.505859,765.901917 632.175476,761.847656 
	C632.473267,760.044434 634.772156,757.736633 636.607056,757.212036 
	C639.590332,756.359314 641.071960,758.636902 641.091919,761.629272 
	C641.119751,765.792725 640.905945,769.974854 641.261963,774.108887 
	C641.373352,775.403198 642.791077,777.338623 643.956787,777.639343 
	C646.817383,778.377380 647.020203,776.115540 646.992920,773.935852 
	C646.938721,769.606323 646.961975,765.275757 646.908020,760.058044 
M352.111877,752.248291 
	C349.534851,752.643066 346.957825,753.037842 344.377686,753.433105 
	C342.322754,742.050293 342.322754,742.050293 338.004974,742.800964 
	C338.004974,753.466125 337.940430,764.243042 338.118347,775.015930 
	C338.133850,775.953613 339.939789,777.740967 340.574921,777.600403 
	C341.782928,777.333252 343.583649,776.025208 343.664917,775.029297 
	C344.015686,770.729004 343.869873,766.384888 343.832855,762.057373 
	C343.804565,758.749023 345.478607,757.102661 348.675781,757.034058 
	C351.921082,756.964417 352.990967,758.995056 352.998077,761.889709 
	C353.008301,766.051270 352.793549,770.232483 353.160889,774.362122 
	C353.269196,775.579834 355.019318,776.651489 356.016998,777.790100 
	C356.962189,776.754761 358.661407,775.761963 358.722595,774.676880 
	C358.993744,769.867371 358.990204,765.019592 358.702423,760.208679 
	C358.481659,756.517578 356.945251,753.422668 352.111877,752.248291 
M742.098267,772.910583 
	C742.072021,768.925354 742.133301,764.937195 741.997986,760.955688 
	C741.820679,755.739929 738.916809,752.771606 733.667603,752.209717 
	C727.972229,751.600159 723.739502,754.308716 722.179321,760.665161 
	C724.771973,759.605835 726.627808,758.665527 728.591431,758.098572 
	C730.392456,757.578613 732.452881,756.922791 734.122803,757.366516 
	C735.140747,757.637024 735.636169,759.874390 736.526855,761.526001 
	C732.556885,762.278992 729.552856,762.545898 726.756714,763.453308 
	C722.996643,764.673584 721.158142,767.588257 721.683044,771.563721 
	C722.180420,775.331421 724.659241,777.738831 728.325745,777.865112 
	C732.983948,778.025513 737.668396,777.422119 742.586426,777.133667 
	C742.446228,776.010803 742.306396,774.891052 742.098267,772.910583 
M274.416382,771.194092 
	C267.385345,775.120544 262.931213,773.676270 262.577606,766.900757 
	C267.536469,766.900757 272.480347,766.900757 277.321777,766.900757 
	C278.996124,757.804199 274.077332,751.459656 266.370605,752.202942 
	C260.369507,752.781738 256.177673,757.904114 256.008484,764.865662 
	C255.836166,771.955811 259.606232,777.430481 265.731201,777.798584 
	C268.856171,777.986389 272.235931,776.979553 275.203156,775.778259 
	C277.553833,774.826538 277.644196,772.792480 274.416382,771.194092 
M780.238464,777.749756 
	C785.159058,778.463745 789.750122,778.255981 792.630371,772.686035 
	C791.002258,772.175781 789.323853,771.957214 787.960144,772.512024 
	C782.323547,774.805786 778.456116,772.807922 778.458923,766.876953 
	C783.370667,766.876953 788.292297,766.876953 793.107666,766.876953 
	C794.254883,760.024841 792.045776,754.971802 787.371826,753.047852 
	C782.533691,751.056396 777.038879,752.643005 774.092346,756.882141 
	C769.196655,763.925720 771.730591,773.631287 780.238464,777.749756 
M376.200195,774.092957 
	C376.049072,776.409302 376.724792,778.413757 379.402710,777.634583 
	C380.534973,777.305237 381.789398,775.313843 381.908905,773.981018 
	C382.248535,770.192566 382.106079,766.352600 382.013275,762.536255 
	C381.929138,759.076660 383.484985,757.183533 386.937958,757.041565 
	C390.660431,756.888489 391.213501,759.424133 391.220459,762.343079 
	C391.230377,766.493713 391.046570,770.660767 391.390198,774.783813 
	C391.479645,775.857056 393.219330,776.792786 394.201019,777.791748 
	C395.142853,776.776794 396.839081,775.803467 396.897736,774.739807 
	C397.171600,769.775452 397.226501,764.771545 396.916412,759.809570 
	C396.547180,753.901611 392.015259,750.909485 386.457825,752.605286 
	C384.267181,753.273682 382.543457,754.523193 379.845001,752.833496 
	C377.613434,751.436157 376.099121,753.432251 376.163452,756.248718 
	C376.292267,761.890747 376.198975,767.537781 376.200195,774.092957 
M315.100739,764.689636 
	C316.373322,760.962158 317.645905,757.234619 318.936615,753.454041 
	C314.993652,752.018066 312.826385,752.805481 311.910400,756.719849 
	C311.063782,760.337524 309.750885,763.846069 308.643341,767.402710 
	C306.464630,763.852051 305.097595,760.334778 304.207123,756.700806 
	C303.182434,752.518860 300.855377,752.100281 297.091766,753.532532 
	C299.606232,760.717651 302.007172,767.622803 304.441162,774.516296 
	C305.806061,778.381836 305.160828,781.265686 301.007050,783.020264 
	C300.063232,783.419006 299.653778,785.082642 298.998383,786.164124 
	C300.072540,786.703308 301.653076,787.985535 302.135712,787.656677 
	C304.602051,785.976013 307.671051,784.313538 308.883240,781.838501 
	C311.428406,776.641968 312.945679,770.942017 315.100739,764.689636 
M464.479614,752.712158 
	C461.366211,752.971985 458.252838,753.231812 454.496185,753.545349 
	C454.496185,760.617676 454.397766,767.886780 454.621918,775.145874 
	C454.649628,776.042725 456.395630,776.886414 457.345367,777.754700 
	C458.264648,776.714111 459.878510,775.734863 459.976837,774.621765 
	C460.312164,770.825745 460.186768,766.980774 460.097717,763.157776 
	C460.016541,759.674561 461.162872,757.235596 464.989960,757.018066 
	C469.407440,756.767029 469.559326,760.062256 469.674286,763.108948 
	C469.818451,766.929077 469.524109,770.776978 469.870972,774.571594 
	C469.974243,775.700928 471.596771,776.691345 472.523193,777.745422 
	C473.394409,776.649963 474.943298,775.598145 475.017120,774.451355 
	C475.304932,769.979797 475.233185,765.474915 475.094360,760.988647 
	C474.887268,754.297180 472.145905,752.006714 464.479614,752.712158 
M524.232666,769.906006 
	C520.292725,769.640198 520.422913,771.517273 522.099609,774.072144 
	C524.557129,777.816772 531.457825,779.685303 536.096069,777.073486 
	C538.309509,775.827148 540.654480,772.815125 540.786804,770.480774 
	C540.900330,768.477173 538.296326,765.824585 536.254089,764.337952 
	C534.346802,762.949341 531.504822,762.917725 529.263733,761.879639 
	C528.334106,761.449036 527.449646,759.976318 527.399719,758.936462 
	C527.368530,758.286621 528.958191,756.959534 529.776306,756.993774 
	C531.453247,757.063965 533.116577,757.797913 534.755676,758.347473 
	C536.639343,758.979004 538.490723,759.706726 541.055054,760.649597 
	C539.195801,753.386047 533.770935,750.382141 527.650635,752.932190 
	C525.155334,753.971924 522.511841,756.777710 521.744629,759.324768 
	C520.704529,762.777710 523.708130,765.004944 526.905640,766.177063 
	C529.085266,766.976013 531.411926,767.410400 533.520264,768.350098 
	C534.404602,768.744385 535.573425,770.191162 535.407593,770.861084 
	C535.148438,771.908325 534.028442,773.110107 532.985046,773.529419 
	C529.269104,775.022522 527.302002,772.055481 524.232666,769.906006 
M748.133667,771.987671 
	C751.873352,777.461670 756.337158,779.421814 761.621033,777.574158 
	C765.170227,776.333008 768.040405,774.289001 767.758240,768.445129 
	C765.447083,769.719177 763.899597,770.783508 762.197083,771.453979 
	C760.324646,772.191223 758.116821,773.310059 756.415710,772.869690 
	C754.982544,772.498596 753.501160,770.280945 753.061279,768.611938 
	C752.491150,766.447815 752.430176,763.859070 753.093323,761.749695 
	C753.653015,759.969177 755.333679,757.724365 756.931519,757.320312 
	C758.479553,756.928955 760.593140,758.544556 762.387207,759.423706 
	C764.032166,760.229797 765.582153,761.229492 768.097229,762.674194 
	C767.843201,755.569824 764.536072,753.244751 759.938171,752.337463 
	C754.937073,751.350525 749.503479,753.823730 748.271912,758.610107 
	C747.247681,762.590393 747.926819,767.009033 748.133667,771.987671 
M232.352310,755.098511 
	C234.643372,761.689941 236.852005,768.312195 239.301926,774.844055 
	C239.739059,776.009521 241.037292,777.275696 242.195053,777.613159 
	C243.120941,777.882996 245.166061,777.089172 245.467255,776.294678 
	C248.309036,768.798035 250.883041,761.199829 253.535614,753.627136 
	C249.395462,752.044983 247.661224,753.055908 246.816742,756.419373 
	C245.793045,760.496704 244.380051,764.476257 243.135513,768.498108 
	C240.876648,764.093872 239.654724,759.790100 238.203033,755.565369 
	C237.034546,752.164795 235.583344,751.933105 232.352310,755.098511 
M517.678711,774.827454 
	C512.956360,772.769592 512.515076,768.823730 513.064270,764.421387 
	C513.146057,763.765930 513.047241,763.089966 513.080994,762.426025 
	C513.206299,759.961609 512.092163,756.796143 516.416809,756.612549 
	C516.596863,756.604980 517.242981,753.870178 516.695068,753.110352 
	C515.311462,751.191589 513.369934,749.675110 511.651947,747.997375 
	C511.937439,747.684814 512.222900,747.372253 512.508423,747.059631 
	C505.769806,743.379761 508.720673,753.343811 504.240784,752.999268 
	C503.984619,752.979614 503.325745,754.359497 503.396149,755.031189 
	C503.463806,755.676086 504.290771,756.213562 504.688324,756.857361 
	C505.585846,758.310913 506.986450,759.731995 507.177673,761.289673 
	C507.681488,765.394165 507.202087,769.658203 508.042145,773.664124 
	C508.398438,775.363159 510.886047,777.257996 512.761963,777.779419 
	C514.111206,778.154480 516.051819,776.402039 517.678711,774.827454 
M659.911194,751.285522 
	C659.964722,747.261841 658.590759,745.236572 654.754639,747.507141 
	C653.724915,749.582153 652.171387,751.133423 651.118591,752.971436 
	C650.564636,753.938538 650.752625,756.485107 650.831116,756.494812 
	C655.373901,757.056519 653.775269,760.548218 653.930176,763.032349 
	C654.126160,766.175049 653.809753,769.356934 654.108887,772.484131 
	C654.493774,776.507568 657.499207,778.685303 661.440002,777.952271 
	C662.364075,777.780457 663.642273,776.938538 663.841919,776.167786 
	C664.042358,775.393799 663.157593,774.291077 662.645752,773.390747 
	C661.721924,771.765625 660.170532,770.277771 659.879028,768.562866 
	C659.412964,765.820923 659.653931,762.933899 659.824097,760.121948 
	C659.884827,759.119019 660.435791,758.019287 661.074890,757.210144 
	C661.857788,756.218933 662.968018,755.486328 663.936707,754.641846 
	C662.712219,753.767273 661.487671,752.892700 659.911194,751.285522 
M329.987976,771.953918 
	C329.849152,768.972473 329.562256,765.988342 329.616425,763.010376 
	C329.663147,760.440369 328.394043,756.971619 332.936157,756.680115 
	C332.709869,755.402161 332.741699,753.995178 332.185303,752.882263 
	C331.618958,751.749451 329.807159,750.974365 329.699615,749.924011 
	C329.287506,745.898743 326.995941,746.564026 326.033905,746.794495 
	C323.712921,749.634766 322.126282,751.193054 321.053955,753.048523 
	C320.509003,753.991577 320.788055,756.544312 320.867096,756.551819 
	C324.836365,756.928589 323.802094,759.924988 323.875854,762.226562 
	C323.982452,765.552734 323.311707,769.060913 324.179596,772.152710 
	C324.806061,774.384277 327.147430,776.444946 329.229919,777.809692 
	C330.104919,778.383118 332.285400,776.964417 333.872375,776.451355 
	C332.735046,775.201904 331.597687,773.952454 329.987976,771.953918 
M448.008087,746.853088 
	C447.778107,742.386841 444.849548,744.433777 442.089020,744.300049 
	C442.089020,754.237610 442.247406,763.844421 442.020569,773.442139 
	C441.911102,778.074463 444.010284,778.355164 448.019257,777.171570 
	C448.019257,767.332886 448.019257,757.561279 448.008087,746.853088 
M288.131714,761.185120 
	C290.385559,759.620483 292.639404,758.055847 295.468689,756.091675 
	C295.385925,756.502136 295.641937,755.988159 295.557770,755.537720 
	C294.062714,747.534485 287.563904,757.198608 285.085938,752.584167 
	C284.122620,753.596008 282.369385,754.574951 282.325531,755.625183 
	C282.062561,761.926025 282.036713,768.250732 282.335297,774.548340 
	C282.388672,775.674622 284.329224,776.711487 285.398407,777.789612 
	C286.271484,776.703369 287.810120,775.668274 287.898102,774.521851 
	C288.214996,770.392761 288.042725,766.226135 288.131714,761.185120 
M710.742310,746.726807 
	C710.743225,755.705078 710.622498,764.686707 710.873047,773.657959 
	C710.911682,775.040344 712.656616,776.375061 713.612427,777.731812 
	C714.453979,776.441772 715.995361,775.167542 716.024963,773.859131 
	C716.235229,764.553101 716.235840,755.237854 716.020630,745.932068 
	C715.991028,744.654480 714.400146,743.412964 713.532104,742.154785 
	C712.603699,743.366638 711.675354,744.578552 710.742310,746.726807 
M493.718781,758.505188 
	C493.720764,763.650635 493.547485,768.806213 493.845886,773.934387 
	C493.922119,775.244324 495.491852,776.467407 496.375366,777.730347 
	C497.346527,776.553772 499.128204,775.398438 499.159607,774.197266 
	C499.394012,765.240540 499.372528,756.272583 499.161621,747.314514 
	C499.135712,746.214539 497.515717,745.152039 496.634430,744.072205 
	C495.666656,745.231628 494.017395,746.307800 493.863800,747.566589 
	C493.464569,750.838074 493.722504,754.189636 493.718781,758.505188 
M587.878784,770.389343 
	C587.880005,771.553711 587.566223,772.840210 587.958862,773.852783 
	C588.502197,775.253723 589.577393,776.448486 590.424805,777.731506 
	C591.380920,776.368774 593.078308,775.049805 593.161804,773.635559 
	C593.484680,768.165527 593.475281,762.655029 593.172974,757.182678 
	C593.090942,755.697815 591.545471,754.293823 590.671753,752.852783 
	C589.741882,754.216919 588.136780,755.521484 588.010193,756.956482 
	C587.646179,761.082886 587.879822,765.262024 587.878784,770.389343 
M364.836212,761.553040 
	C364.843811,766.041199 364.699249,770.538879 364.980225,775.009827 
	C365.040466,775.968323 366.517853,777.270325 367.579773,777.568298 
	C368.199860,777.742371 370.030853,776.261658 370.053223,775.488831 
	C370.250122,768.680481 370.246490,761.861389 370.043152,755.053223 
	C370.020416,754.291992 368.386414,753.004456 367.501953,753.006470 
	C366.632324,753.008423 365.229370,754.213257 365.012482,755.118408 
	C364.597076,756.851807 364.856567,758.747009 364.836212,761.553040 
M367.520203,743.202515 
	C366.526276,744.429321 365.414459,745.591431 364.666595,746.953308 
	C364.555634,747.155457 366.138916,748.840210 366.977753,748.874451 
	C368.073700,748.919250 369.208954,748.003174 370.327301,747.500427 
	C369.631989,746.098511 368.936707,744.696533 367.520203,743.202515 
M593.748962,746.538269 
	C593.283997,743.635925 591.645508,742.341675 589.002197,743.874023 
	C588.201965,744.337952 587.584167,746.780579 588.076904,747.508301 
	C589.760864,749.995117 591.819946,749.596680 593.748962,746.538269 
z"/>
<path fill="#FFFEFE" opacity="1.000000" stroke="none" 
	d="
M546.556396,314.377960 
	C510.792755,309.806061 475.395538,305.810730 440.198181,300.492371 
	C431.136017,299.123077 422.218048,294.444916 414.067139,289.818573 
	C383.535858,272.489594 355.316956,251.933853 330.490295,226.964981 
	C327.124481,223.579880 324.210052,219.745972 321.600433,215.057114 
	C322.909180,215.251038 324.250183,215.322189 325.522064,215.656387 
	C413.224030,238.700302 500.901611,261.837524 588.638245,284.748505 
	C601.373657,288.074188 610.786499,295.001160 617.003784,306.517151 
	C620.150024,312.344849 623.493652,318.065979 627.293335,324.802094 
	C599.887085,321.272888 573.442139,317.867493 546.556396,314.377960 
z"/>
<path fill="#FFFEFE" opacity="1.000000" stroke="none" 
	d="
M411.556732,325.437561 
	C403.875031,318.920654 396.473907,312.625549 389.072815,306.330475 
	C389.341644,305.859253 389.610474,305.388000 389.879333,304.916779 
	C396.399902,305.693634 402.928131,306.411499 409.439819,307.256683 
	C457.783722,313.531342 506.127350,319.808105 554.464600,326.133789 
	C576.404602,329.004913 598.366943,331.747772 620.231018,335.120544 
	C624.713562,335.812073 630.048340,338.015564 632.814087,341.335144 
	C638.563843,348.236267 642.856018,356.351807 648.329346,364.874451 
	C644.409119,365.242706 642.118591,365.574219 639.819092,365.656586 
	C599.052734,367.116821 558.212769,367.512146 517.544373,370.359772 
	C491.932526,372.153107 469.958466,364.698883 449.202332,351.480164 
	C436.441559,343.353363 424.272217,334.297882 411.556732,325.437561 
z"/>
<path fill="#FFFEFE" opacity="1.000000" stroke="none" 
	d="
M655.466614,395.571533 
	C621.078247,402.907959 587.042664,409.965668 553.102600,417.455719 
	C542.862366,419.715515 532.913574,419.251831 522.990295,416.703094 
	C498.288300,410.358521 475.415802,399.743622 453.751617,386.413116 
	C453.076569,385.997742 452.497894,385.425781 451.050781,384.267853 
	C455.448364,383.890778 458.963806,383.461304 462.491272,383.306763 
	C496.246002,381.827942 530.004028,380.424835 563.758484,378.940338 
	C589.198730,377.821503 614.636719,376.649353 640.072144,375.426178 
	C647.020020,375.092041 652.460693,377.254181 655.725525,383.753937 
	C657.363831,387.015594 659.146240,390.204834 661.209351,394.075836 
	C659.185181,394.598694 657.520630,395.028656 655.466614,395.571533 
z"/>
<path fill="#FFFEFD" opacity="1.000000" stroke="none" 
	d="
M225.955475,562.011841 
	C225.955444,575.167297 225.955444,587.824463 225.955444,600.481628 
	C226.444046,600.924683 226.932648,601.367737 227.421249,601.810791 
	C228.211349,600.489014 228.817291,599.004578 229.819443,597.870117 
	C242.506226,583.509094 255.378311,569.309265 267.899261,554.806030 
	C271.537567,550.591675 275.195282,547.844849 281.020111,548.818054 
	C283.258942,549.192139 285.612610,548.879089 289.200867,548.879089 
	C286.126801,552.421631 283.815735,555.133484 281.453033,557.799561 
	C269.627502,571.143494 257.863464,584.543396 245.898071,597.760864 
	C243.117874,600.832031 242.598236,602.908142 245.408524,606.537598 
	C259.688538,624.980652 273.621918,643.692078 287.673218,662.312134 
	C288.965485,664.024536 290.233063,665.755615 292.291138,668.527039 
	C285.623474,668.527039 279.931030,668.763062 274.284698,668.357056 
	C272.914673,668.258545 271.510132,666.187317 270.437134,664.782104 
	C256.987946,647.169617 243.600006,629.510315 230.185074,611.871643 
	C229.123428,610.475769 227.977951,609.143616 226.070343,606.796082 
	C226.070343,627.944885 226.070343,647.840332 226.070343,668.569275 
	C221.374908,668.569275 217.101379,668.804504 212.896057,668.373779 
	C212.040146,668.286072 210.842514,665.701599 210.818909,664.251587 
	C210.642685,653.422180 210.721771,642.588684 210.721603,631.756470 
	C210.721298,610.591980 210.830490,589.426575 210.654205,568.263550 
	C210.602188,562.017761 209.744186,555.778625 209.229721,549.206726 
	C214.556442,549.206726 219.823654,549.206726 225.955490,549.206726 
	C225.955490,553.335571 225.955490,557.424561 225.955475,562.011841 
z"/>
<path fill="#FFFDFB" opacity="1.000000" stroke="none" 
	d="
M692.960205,591.037354 
	C692.960205,575.311890 692.960205,559.586365 692.960205,543.479858 
	C696.545166,543.479858 701.404846,543.479858 706.941833,543.479858 
	C706.941833,545.649536 706.941833,547.590149 706.941833,549.530762 
	C706.941833,577.830139 706.966309,606.129578 706.929626,634.428894 
	C706.915222,645.578491 706.397278,656.772949 711.742737,668.014954 
	C707.093140,668.682678 703.086914,669.414062 699.048950,669.706543 
	C698.240051,669.765076 696.952698,668.305847 696.509399,667.277649 
	C695.548828,665.049377 694.991577,662.647217 694.627441,661.471985 
	C687.915588,664.443481 681.637939,668.342896 674.816833,669.984192 
	C664.170898,672.545959 654.751709,668.750671 647.344971,660.684753 
	C632.666443,644.699768 632.711548,612.072754 647.307678,595.950012 
	C658.779419,583.278320 676.106689,581.351746 692.686462,591.070740 
	C693.065857,591.194885 693.361511,591.130005 693.361511,591.130005 
	C693.361511,591.130005 692.960205,591.037354 692.960205,591.037354 
M662.624207,598.892944 
	C661.101562,600.167725 659.383240,601.270508 658.087402,602.744690 
	C648.264221,613.920105 648.318054,640.784180 658.399475,651.804871 
	C667.861633,662.148560 682.541443,660.755493 692.515076,648.511902 
	C693.152893,647.729004 693.205261,646.313599 693.206299,645.192139 
	C693.215149,635.719971 693.480713,626.231995 693.031921,616.779053 
	C692.227783,599.841064 678.997375,591.862488 662.624207,598.892944 
z"/>
<path fill="#FFFEFD" opacity="1.000000" stroke="none" 
	d="
M641.387268,406.692383 
	C648.144775,401.908722 655.610413,401.676361 663.106628,401.996002 
	C664.270508,402.045624 665.701416,403.407440 666.442444,404.534760 
	C670.374146,410.516022 674.166138,416.590729 677.927612,422.681763 
	C682.331238,429.812531 683.366577,437.445679 679.925964,445.129944 
	C672.711304,461.243134 665.262024,477.318237 653.783691,490.945648 
	C649.478882,496.056427 643.989502,500.169495 638.376892,505.349609 
	C638.376892,495.870728 638.208191,487.839935 638.409790,479.818420 
	C638.932312,459.029358 639.588135,438.243408 640.267456,417.458740 
	C640.381104,413.982269 640.879517,410.518341 641.387268,406.692383 
z"/>
<path fill="#FFFEFC" opacity="1.000000" stroke="none" 
	d="
M610.480164,655.531494 
	C616.209778,653.133301 616.428589,653.275635 620.028198,661.616943 
	C611.057556,668.818787 600.571472,671.515869 589.348511,670.486023 
	C569.647217,668.678162 556.721741,654.502869 555.145691,633.271118 
	C554.040466,618.382324 557.409851,604.733643 568.449829,593.908447 
	C578.084290,584.461487 594.500061,581.872131 606.614990,587.809204 
	C616.578552,592.692017 620.978516,601.373108 621.911316,611.945496 
	C623.175293,626.271118 623.032715,626.283386 608.989136,626.283752 
	C597.495361,626.284058 585.999146,626.418396 574.509033,626.213623 
	C570.475403,626.141785 569.387512,627.517334 569.667419,631.460022 
	C570.695862,645.947327 577.687805,656.006653 589.173279,658.518494 
	C596.435730,660.106812 603.390991,658.493958 610.480164,655.531494 
M604.579102,602.118042 
	C599.111816,595.521057 591.551453,593.455627 584.149292,596.536743 
	C577.153503,599.448608 571.021118,608.721436 571.516113,615.656128 
	C583.545471,615.656128 595.570374,615.656128 608.820007,615.656128 
	C607.385498,610.862366 606.173889,606.813354 604.579102,602.118042 
z"/>
<path fill="#FFFEFC" opacity="1.000000" stroke="none" 
	d="
M298.938782,650.943298 
	C291.372223,633.566650 291.792908,616.815186 301.586945,600.913025 
	C310.582153,586.307739 328.159332,580.753845 344.019379,587.163879 
	C355.384216,591.757080 359.940552,601.306458 360.891052,612.804504 
	C362.004150,626.269287 361.831238,626.283386 348.479218,626.283630 
	C336.657135,626.283813 324.832703,626.419617 313.014252,626.212524 
	C308.828918,626.139221 307.626648,627.669739 308.521606,631.553589 
	C308.930450,633.327942 308.885620,635.202637 309.231110,636.996338 
	C312.503418,653.985168 325.117401,662.082092 341.970612,658.015076 
	C343.743805,657.587158 345.497955,657.032654 347.206146,656.390930 
	C355.020691,653.455505 355.013702,653.436890 358.790955,660.964478 
	C344.635406,678.064758 311.204987,672.644958 298.938782,650.943298 
M311.045624,615.935242 
	C322.780243,615.935242 334.514862,615.935242 346.168121,615.935242 
	C348.031342,603.714478 339.792755,594.285950 328.524567,595.181702 
	C319.038757,595.935730 310.296143,605.680054 311.045624,615.935242 
z"/>
<path fill="#FFFEFD" opacity="1.000000" stroke="none" 
	d="
M444.067627,663.772705 
	C444.452759,667.313904 443.464722,668.783386 440.007568,668.721619 
	C428.737244,668.520264 430.924622,669.413818 430.763611,659.874817 
	C430.488129,643.555908 430.626984,627.222839 429.981262,610.919922 
	C429.520966,599.298584 422.417603,594.421692 411.251129,598.023132 
	C406.157745,599.665833 401.449402,602.836426 396.991394,605.927063 
	C395.506165,606.956665 394.701141,609.887512 394.678528,611.961182 
	C394.496582,628.621582 394.579529,645.284851 394.574341,661.947205 
	C394.572235,668.664429 394.564087,668.664490 387.706543,668.664734 
	C385.737274,668.664795 383.768005,668.664734 381.582336,668.664734 
	C378.809021,641.559143 384.913635,614.356995 376.971893,587.922485 
	C387.402130,583.600647 390.447052,584.905823 393.976318,596.205811 
	C395.533783,595.085693 396.806274,593.848999 398.324554,593.135315 
	C404.273865,590.339050 410.091339,586.158936 416.339264,585.314270 
	C433.106018,583.047363 443.604797,593.107605 443.934540,610.816589 
	C444.260162,628.306274 444.045624,645.805908 444.067627,663.772705 
z"/>
<path fill="#FFFEFD" opacity="1.000000" stroke="none" 
	d="
M519.720337,607.795288 
	C516.824158,598.495605 511.454376,594.919067 502.605408,597.682739 
	C496.886688,599.468933 491.600708,602.941711 486.514404,606.261597 
	C485.057007,607.212891 484.373657,610.260498 484.352203,612.357239 
	C484.181915,629.006165 484.072083,645.660889 484.370422,662.306274 
	C484.459015,667.249634 483.302338,669.512939 478.060638,668.717102 
	C475.980225,668.401306 473.811829,668.665283 471.527771,668.665283 
	C468.785919,641.493652 474.868713,614.307434 466.870239,587.909058 
	C477.703125,583.661194 480.384735,584.827087 483.915253,596.234131 
	C485.476044,595.094788 486.749420,593.843140 488.272430,593.110779 
	C494.052155,590.331299 499.687775,586.274780 505.786591,585.325562 
	C521.985168,582.804260 532.908936,591.835327 533.652588,608.816162 
	C534.510742,628.410645 533.852112,648.071533 533.852112,668.612610 
	C530.122375,668.612610 526.500793,668.953186 523.018250,668.407166 
	C521.959229,668.241150 520.564819,665.639221 520.544312,664.136353 
	C520.354065,650.152344 520.480347,636.164490 520.400879,622.178406 
	C520.374451,617.522400 520.018555,612.868225 519.720337,607.795288 
z"/>
<path fill="#FFFDFC" opacity="1.000000" stroke="none" 
	d="
M727.000977,695.406860 
	C728.013611,694.321777 728.964661,693.191589 729.990723,693.118896 
	C736.160339,692.681458 740.839539,689.640076 743.994629,684.642090 
	C746.908142,680.026733 749.472717,675.108154 751.470215,670.039062 
	C752.250488,668.059143 751.511230,665.141602 750.705017,662.927490 
	C742.160461,639.460632 733.460266,616.050476 724.813110,592.620911 
	C724.193298,590.941406 723.653442,589.232361 722.856873,586.892151 
	C727.294006,586.892151 731.150513,586.501953 734.856079,587.079712 
	C736.388245,587.318542 738.271362,589.395020 738.849182,591.038574 
	C745.033508,608.628296 750.984619,626.300049 757.012024,643.945068 
	C757.532471,645.468567 758.141479,646.961914 759.076660,649.444336 
	C759.982605,647.251587 760.579407,646.003967 761.022827,644.704041 
	C766.720764,628.001526 772.273499,611.248169 778.127808,594.600830 
	C781.270630,585.663818 778.966614,587.009216 789.158630,586.895996 
	C790.301453,586.883240 791.446716,587.085876 793.238220,587.246765 
	C792.664368,589.216248 792.253357,590.924927 791.673096,592.574036 
	C782.775818,617.859863 774.225464,643.277405 764.751892,668.345886 
	C761.206970,677.726196 756.158752,686.727966 750.586914,695.097412 
	C745.396179,702.894470 737.080811,705.455994 726.974060,703.596252 
	C726.974060,701.048523 726.974060,698.449524 727.000977,695.406860 
z"/>
<path fill="#FFFEFD" opacity="1.000000" stroke="none" 
	d="
M599.442993,419.669373 
	C602.971313,413.822083 608.469788,412.025757 614.327942,411.064636 
	C620.007080,410.132874 625.733765,409.490509 631.382019,408.728821 
	C637.138977,437.031281 608.860474,481.949310 583.154968,485.289734 
	C585.423645,475.783112 587.582703,466.465179 589.878662,457.181122 
	C592.947754,444.771118 596.123047,432.387360 599.442993,419.669373 
z"/>
<path fill="#FFFDFC" opacity="1.000000" stroke="none" 
	d="
M564.465942,457.497375 
	C558.197937,461.709686 551.892029,464.820160 543.044373,465.533264 
	C548.719727,454.348755 553.179626,443.720398 559.242615,434.102661 
	C565.966370,423.436737 577.789062,420.876770 590.333435,418.095673 
	C586.674011,435.045685 577.801331,447.491791 564.465942,457.497375 
z"/>
<path fill="#FFF9F5" opacity="1.000000" stroke="none" 
	d="
M580.864990,759.715210 
	C579.566589,761.270935 578.473877,762.518921 576.929321,764.282959 
	C578.954773,768.141479 581.235962,772.487061 583.692078,777.165894 
	C579.534302,778.592407 577.018616,777.785278 575.497437,773.899841 
	C574.532532,771.435181 573.425354,768.861389 571.723572,766.911011 
	C570.673828,765.707947 568.366028,765.116028 566.662598,765.187744 
	C565.883179,765.220520 564.822144,767.442566 564.561829,768.800720 
	C564.192017,770.730164 564.790344,772.869019 564.302124,774.743164 
	C563.993530,775.927917 562.491699,777.544067 561.465027,777.588684 
	C560.459229,777.632446 558.487183,775.949890 558.466187,774.991516 
	C558.244690,764.884155 558.329102,754.770142 558.329102,744.269348 
	C563.868958,744.269348 568.869934,743.738220 573.711182,744.391113 
	C581.397278,745.427795 584.125183,751.478821 580.864990,759.715210 
M575.503784,757.722656 
	C577.618774,750.060669 574.482605,747.626648 564.598511,749.561340 
	C564.598511,752.857666 564.598511,756.213196 564.598511,760.693604 
	C568.439636,759.819885 571.684753,759.081787 575.503784,757.722656 
z"/>
<path fill="#FFFAF6" opacity="1.000000" stroke="none" 
	d="
M620.503235,778.167114 
	C617.769348,788.219238 607.675903,790.709534 600.374023,782.070129 
	C601.944458,782.040039 603.689209,781.546814 605.054688,782.060913 
	C610.639465,784.163635 613.658325,782.716003 614.790710,776.581848 
	C613.423096,777.025330 612.272766,777.707092 611.123413,777.705566 
	C608.859924,777.702637 606.331787,777.889404 604.385742,776.983093 
	C599.521484,774.717590 598.516357,769.986877 598.516479,765.204834 
	C598.516541,760.431946 599.454407,755.638550 604.324097,753.398499 
	C606.379517,752.452942 609.084290,752.803955 611.494690,752.796875 
	C612.582275,752.793640 613.959412,753.941101 614.714844,753.569519 
	C621.139160,750.409729 620.792358,754.665833 620.733765,758.817993 
	C620.644653,765.127930 620.627441,771.438904 620.503235,778.167114 
M614.639221,770.720459 
	C614.744324,767.748901 615.019958,764.771179 614.911316,761.807434 
	C614.775879,758.113281 611.623047,755.645447 608.557617,757.330688 
	C606.603394,758.405029 604.557617,761.230591 604.480225,763.341553 
	C604.370300,766.343384 605.482422,769.800110 607.220398,772.247253 
	C607.867981,773.159058 611.747192,771.775635 614.639221,770.720459 
z"/>
<path fill="#FFFBF8" opacity="1.000000" stroke="none" 
	d="
M418.852722,753.396362 
	C422.163239,752.273743 424.010803,752.720459 423.933258,756.468445 
	C423.792145,763.288086 424.117462,770.123108 423.815643,776.932495 
	C423.413086,786.015198 413.338898,790.836914 405.829865,785.617126 
	C404.927765,784.989990 404.765442,783.298706 404.260193,782.100647 
	C405.524414,782.002563 406.950500,781.473450 408.026123,781.877502 
	C414.261169,784.219299 417.350647,782.706787 417.626953,776.633484 
	C412.638855,778.633789 407.884613,779.117981 404.275391,774.231140 
	C401.218597,770.092285 400.937317,761.542542 403.629913,757.066406 
	C406.093811,752.970459 410.125122,751.424194 414.746307,752.754700 
	C415.981567,753.110352 417.253693,753.337830 418.852722,753.396362 
M418.075287,761.907227 
	C418.183136,758.864807 416.543579,756.736816 413.714203,757.194092 
	C411.682587,757.522400 408.840027,759.289490 408.314301,761.011658 
	C407.459778,763.810547 407.521240,767.353027 408.538361,770.081238 
	C409.126129,771.657898 412.410370,773.134583 414.356110,772.988770 
	C415.706665,772.887634 417.250519,770.098938 417.953491,768.227600 
	C418.554291,766.628113 418.081024,764.625122 418.075287,761.907227 
z"/>
<path fill="#FFF9F5" opacity="1.000000" stroke="none" 
	d="
M217.299576,757.987305 
	C220.900818,757.995239 224.041412,757.995239 227.090073,757.995239 
	C228.183975,762.739563 228.184204,762.757141 223.343445,762.821289 
	C220.541382,762.858459 217.738434,762.828064 214.532379,762.828064 
	C214.532379,766.214294 214.532379,769.125244 214.532379,772.976746 
	C218.479172,772.976746 222.561401,772.802795 226.612335,773.082336 
	C227.832031,773.166443 228.964767,774.511169 230.137360,775.278320 
	C229.010712,776.124573 227.918716,777.641113 226.751434,777.701477 
	C221.606659,777.967468 216.434067,777.944641 211.286667,777.703735 
	C210.231689,777.654419 208.369888,776.236511 208.353851,775.420471 
	C208.152206,765.158508 208.221512,754.891296 208.221512,744.316895 
	C215.720535,744.316895 222.610519,744.316895 229.489899,744.316895 
	C230.630997,747.382690 230.083725,749.009399 226.667465,748.935059 
	C222.716370,748.848999 218.761978,748.915039 214.207657,748.915039 
	C215.163864,752.405518 211.415680,756.283936 217.299576,757.987305 
z"/>
<path fill="#FFFCFB" opacity="1.000000" stroke="none" 
	d="
M686.559326,770.888550 
	C686.533508,772.668884 686.888733,774.175293 686.374329,775.274841 
	C685.881775,776.327576 684.482544,777.598328 683.488281,777.592957 
	C682.501404,777.587646 680.683960,776.126892 680.667603,775.276855 
	C680.470459,765.020508 680.539917,754.759094 680.539917,744.215454 
	C686.209900,744.215454 691.207092,743.818665 696.113464,744.316528 
	C702.147339,744.928772 705.959167,749.600952 705.749268,755.105408 
	C705.534302,760.745667 701.566833,764.520935 695.296875,765.016113 
	C694.139099,765.107544 692.951355,765.248718 691.814026,765.095398 
	C687.617676,764.529724 685.975525,766.358765 686.559326,770.888550 
M687.084473,749.330933 
	C684.415039,758.971924 686.901855,762.316406 695.164734,760.329285 
	C698.440552,759.541504 700.557068,757.340637 699.622986,754.376404 
	C698.943542,752.220215 696.450745,750.172791 694.264343,749.101746 
	C692.540649,748.257385 690.051453,748.975525 687.084473,749.330933 
z"/>
<path fill="#FFF9F4" opacity="1.000000" stroke="none" 
	d="
M646.930664,760.501831 
	C646.961975,765.275757 646.938721,769.606323 646.992920,773.935852 
	C647.020203,776.115540 646.817383,778.377380 643.956787,777.639343 
	C642.791077,777.338623 641.373352,775.403198 641.261963,774.108887 
	C640.905945,769.974854 641.119751,765.792725 641.091919,761.629272 
	C641.071960,758.636902 639.590332,756.359314 636.607056,757.212036 
	C634.772156,757.736633 632.473267,760.044434 632.175476,761.847656 
	C631.505859,765.901917 632.173889,770.160034 631.811035,774.292419 
	C631.702209,775.531250 629.985352,776.628845 629.005188,777.791077 
	C628.036316,776.611755 626.257507,775.452820 626.227234,774.249878 
	C625.992554,764.929077 626.216919,755.597534 626.039246,746.274231 
	C625.959106,742.070129 627.806274,741.417236 631.780396,742.718018 
	C631.780396,746.352295 631.780396,750.108643 631.780396,754.028687 
	C642.100586,750.810120 645.023621,752.052124 646.930664,760.501831 
z"/>
<path fill="#FFF9F4" opacity="1.000000" stroke="none" 
	d="
M352.494141,752.334961 
	C356.945251,753.422668 358.481659,756.517578 358.702423,760.208679 
	C358.990204,765.019592 358.993744,769.867371 358.722595,774.676880 
	C358.661407,775.761963 356.962189,776.754761 356.017029,777.790100 
	C355.019318,776.651489 353.269196,775.579834 353.160889,774.362122 
	C352.793549,770.232483 353.008301,766.051270 352.998077,761.889709 
	C352.990967,758.995056 351.921082,756.964417 348.675781,757.034058 
	C345.478607,757.102661 343.804565,758.749023 343.832855,762.057373 
	C343.869873,766.384888 344.015686,770.729004 343.664917,775.029297 
	C343.583649,776.025208 341.782928,777.333252 340.574921,777.600403 
	C339.939789,777.740967 338.133850,775.953613 338.118347,775.015930 
	C337.940430,764.243042 338.004974,753.466125 338.004974,742.800964 
	C342.322754,742.050293 342.322754,742.050293 344.377686,753.433105 
	C346.957825,753.037842 349.534851,752.643066 352.494141,752.334961 
z"/>
<path fill="#FFFAF7" opacity="1.000000" stroke="none" 
	d="
M742.132446,773.340942 
	C742.306396,774.891052 742.446228,776.010803 742.586426,777.133667 
	C737.668396,777.422119 732.983948,778.025513 728.325745,777.865112 
	C724.659241,777.738831 722.180420,775.331421 721.683044,771.563721 
	C721.158142,767.588257 722.996643,764.673584 726.756714,763.453308 
	C729.552856,762.545898 732.556885,762.278992 736.526855,761.526001 
	C735.636169,759.874390 735.140747,757.637024 734.122803,757.366516 
	C732.452881,756.922791 730.392456,757.578613 728.591431,758.098572 
	C726.627808,758.665527 724.771973,759.605835 722.179321,760.665161 
	C723.739502,754.308716 727.972229,751.600159 733.667603,752.209717 
	C738.916809,752.771606 741.820679,755.739929 741.997986,760.955688 
	C742.133301,764.937195 742.072021,768.925354 742.132446,773.340942 
M736.182922,770.058044 
	C735.437256,768.710754 734.568115,766.169128 733.968140,766.231201 
	C731.833984,766.451843 729.631592,767.312622 727.817749,768.489929 
	C727.312561,768.817810 727.677429,772.008606 728.306519,772.266235 
	C729.962402,772.944397 732.001587,772.939758 733.849365,772.774292 
	C734.608215,772.706360 735.267578,771.526855 736.182922,770.058044 
z"/>
<path fill="#FFFBF8" opacity="1.000000" stroke="none" 
	d="
M274.788788,771.252625 
	C277.644196,772.792480 277.553833,774.826538 275.203156,775.778259 
	C272.235931,776.979553 268.856171,777.986389 265.731201,777.798584 
	C259.606232,777.430481 255.836166,771.955811 256.008484,764.865662 
	C256.177673,757.904114 260.369507,752.781738 266.370605,752.202942 
	C274.077332,751.459656 278.996124,757.804199 277.321777,766.900757 
	C272.480347,766.900757 267.536469,766.900757 262.577606,766.900757 
	C262.931213,773.676270 267.385345,775.120544 274.788788,771.252625 
M271.082916,758.545044 
	C265.945038,755.544128 263.017365,756.937988 262.630402,762.919128 
	C264.794434,762.919128 266.938751,762.869507 269.079834,762.931335 
	C271.949158,763.014160 272.637573,761.727600 271.082916,758.545044 
z"/>
<path fill="#FFFBF8" opacity="1.000000" stroke="none" 
	d="
M779.855103,777.618225 
	C771.730591,773.631287 769.196655,763.925720 774.092346,756.882141 
	C777.038879,752.643005 782.533691,751.056396 787.371826,753.047852 
	C792.045776,754.971802 794.254883,760.024841 793.107666,766.876953 
	C788.292297,766.876953 783.370667,766.876953 778.458923,766.876953 
	C778.456116,772.807922 782.323547,774.805786 787.960144,772.512024 
	C789.323853,771.957214 791.002258,772.175781 792.630371,772.686035 
	C789.750122,778.255981 785.159058,778.463745 779.855103,777.618225 
M779.673767,758.072449 
	C779.034363,759.421143 778.394958,760.769897 777.489929,762.678833 
	C781.430786,762.678833 784.477844,762.678833 787.539551,762.678833 
	C787.210205,757.233826 785.910156,756.355713 779.673767,758.072449 
z"/>
<path fill="#FFF9F4" opacity="1.000000" stroke="none" 
	d="
M376.198792,773.637817 
	C376.198975,767.537781 376.292267,761.890747 376.163452,756.248718 
	C376.099121,753.432251 377.613434,751.436157 379.845001,752.833496 
	C382.543457,754.523193 384.267181,753.273682 386.457825,752.605286 
	C392.015259,750.909485 396.547180,753.901611 396.916412,759.809570 
	C397.226501,764.771545 397.171600,769.775452 396.897736,774.739807 
	C396.839081,775.803467 395.142853,776.776794 394.201050,777.791748 
	C393.219330,776.792786 391.479645,775.857056 391.390198,774.783813 
	C391.046570,770.660767 391.230377,766.493713 391.220459,762.343079 
	C391.213501,759.424133 390.660431,756.888489 386.937958,757.041565 
	C383.484985,757.183533 381.929138,759.076660 382.013275,762.536255 
	C382.106079,766.352600 382.248535,770.192566 381.908905,773.981018 
	C381.789398,775.313843 380.534973,777.305237 379.402710,777.634583 
	C376.724792,778.413757 376.049072,776.409302 376.198792,773.637817 
z"/>
<path fill="#FFFBF8" opacity="1.000000" stroke="none" 
	d="
M314.992828,765.069153 
	C312.945679,770.942017 311.428406,776.641968 308.883240,781.838501 
	C307.671051,784.313538 304.602051,785.976013 302.135712,787.656677 
	C301.653076,787.985535 300.072540,786.703308 298.998352,786.164124 
	C299.653778,785.082642 300.063232,783.419006 301.007050,783.020264 
	C305.160828,781.265686 305.806061,778.381836 304.441162,774.516296 
	C302.007172,767.622803 299.606232,760.717651 297.091766,753.532532 
	C300.855377,752.100281 303.182434,752.518860 304.207123,756.700806 
	C305.097595,760.334778 306.464630,763.852051 308.643341,767.402710 
	C309.750885,763.846069 311.063782,760.337524 311.910400,756.719849 
	C312.826385,752.805481 314.993652,752.018066 318.936615,753.454041 
	C317.645905,757.234619 316.373322,760.962158 314.992828,765.069153 
z"/>
<path fill="#FFFCFB" opacity="1.000000" stroke="none" 
	d="
M464.845337,752.594238 
	C472.145905,752.006714 474.887268,754.297180 475.094360,760.988647 
	C475.233185,765.474915 475.304932,769.979797 475.017120,774.451355 
	C474.943298,775.598145 473.394409,776.649963 472.523193,777.745422 
	C471.596771,776.691345 469.974243,775.700928 469.870972,774.571594 
	C469.524109,770.776978 469.818451,766.929077 469.674286,763.108948 
	C469.559326,760.062256 469.407440,756.767029 464.989960,757.018066 
	C461.162872,757.235596 460.016541,759.674561 460.097717,763.157776 
	C460.186768,766.980774 460.312164,770.825745 459.976837,774.621765 
	C459.878510,775.734863 458.264648,776.714111 457.345337,777.754700 
	C456.395630,776.886414 454.649628,776.042725 454.621918,775.145874 
	C454.397766,767.886780 454.496185,760.617676 454.496185,753.545349 
	C458.252838,753.231812 461.366211,752.971985 464.845337,752.594238 
z"/>
<path fill="#FFFAF7" opacity="1.000000" stroke="none" 
	d="
M524.626221,769.955933 
	C527.302002,772.055481 529.269104,775.022522 532.985046,773.529419 
	C534.028442,773.110107 535.148438,771.908325 535.407593,770.861084 
	C535.573425,770.191162 534.404602,768.744385 533.520264,768.350098 
	C531.411926,767.410400 529.085266,766.976013 526.905640,766.177063 
	C523.708130,765.004944 520.704529,762.777710 521.744629,759.324768 
	C522.511841,756.777710 525.155334,753.971924 527.650635,752.932190 
	C533.770935,750.382141 539.195801,753.386047 541.055054,760.649597 
	C538.490723,759.706726 536.639343,758.979004 534.755676,758.347473 
	C533.116577,757.797913 531.453247,757.063965 529.776306,756.993774 
	C528.958191,756.959534 527.368530,758.286621 527.399719,758.936462 
	C527.449646,759.976318 528.334106,761.449036 529.263733,761.879639 
	C531.504822,762.917725 534.346802,762.949341 536.254089,764.337952 
	C538.296326,765.824585 540.900330,768.477173 540.786804,770.480774 
	C540.654480,772.815125 538.309509,775.827148 536.096069,777.073486 
	C531.457825,779.685303 524.557129,777.816772 522.099609,774.072144 
	C520.422913,771.517273 520.292725,769.640198 524.626221,769.955933 
z"/>
<path fill="#FFFAF6" opacity="1.000000" stroke="none" 
	d="
M747.992554,771.610596 
	C747.926819,767.009033 747.247681,762.590393 748.271912,758.610107 
	C749.503479,753.823730 754.937073,751.350525 759.938171,752.337463 
	C764.536072,753.244751 767.843201,755.569824 768.097229,762.674194 
	C765.582153,761.229492 764.032166,760.229797 762.387207,759.423706 
	C760.593140,758.544556 758.479553,756.928955 756.931519,757.320312 
	C755.333679,757.724365 753.653015,759.969177 753.093323,761.749695 
	C752.430176,763.859070 752.491150,766.447815 753.061279,768.611938 
	C753.501160,770.280945 754.982544,772.498596 756.415710,772.869690 
	C758.116821,773.310059 760.324646,772.191223 762.197083,771.453979 
	C763.899597,770.783508 765.447083,769.719177 767.758240,768.445129 
	C768.040405,774.289001 765.170227,776.333008 761.621033,777.574158 
	C756.337158,779.421814 751.873352,777.461670 747.992554,771.610596 
z"/>
<path fill="#FFFBF8" opacity="1.000000" stroke="none" 
	d="
M232.275116,754.703796 
	C235.583344,751.933105 237.034546,752.164795 238.203033,755.565369 
	C239.654724,759.790100 240.876648,764.093872 243.135513,768.498108 
	C244.380051,764.476257 245.793045,760.496704 246.816742,756.419373 
	C247.661224,753.055908 249.395462,752.044983 253.535614,753.627136 
	C250.883041,761.199829 248.309036,768.798035 245.467255,776.294678 
	C245.166061,777.089172 243.120941,777.882996 242.195053,777.613159 
	C241.037292,777.275696 239.739059,776.009521 239.301926,774.844055 
	C236.852005,768.312195 234.643372,761.689941 232.275116,754.703796 
z"/>
<path fill="#FFF9F4" opacity="1.000000" stroke="none" 
	d="
M517.703735,775.213013 
	C516.051819,776.402039 514.111206,778.154480 512.761963,777.779419 
	C510.886047,777.257996 508.398438,775.363159 508.042145,773.664124 
	C507.202087,769.658203 507.681488,765.394165 507.177673,761.289673 
	C506.986450,759.731995 505.585846,758.310913 504.688324,756.857361 
	C504.290771,756.213562 503.463806,755.676086 503.396149,755.031189 
	C503.325745,754.359497 503.984619,752.979614 504.240784,752.999268 
	C508.720673,753.343811 505.769806,743.379761 512.508423,747.059631 
	C512.222900,747.372253 511.937439,747.684814 511.651947,747.997375 
	C513.369934,749.675110 515.311462,751.191589 516.695068,753.110352 
	C517.242981,753.870178 516.596863,756.604980 516.416809,756.612549 
	C512.092163,756.796143 513.206299,759.961609 513.080994,762.426025 
	C513.047241,763.089966 513.146057,763.765930 513.064270,764.421387 
	C512.515076,768.823730 512.956360,772.769592 517.703735,775.213013 
z"/>
<path fill="#FFFAF7" opacity="1.000000" stroke="none" 
	d="
M660.087158,751.651855 
	C661.487671,752.892700 662.712219,753.767273 663.936707,754.641846 
	C662.968018,755.486328 661.857788,756.218933 661.074890,757.210144 
	C660.435791,758.019287 659.884827,759.119019 659.824097,760.121948 
	C659.653931,762.933899 659.412964,765.820923 659.879028,768.562866 
	C660.170532,770.277771 661.721924,771.765625 662.645752,773.390747 
	C663.157593,774.291077 664.042358,775.393799 663.841919,776.167786 
	C663.642273,776.938538 662.364075,777.780457 661.440002,777.952271 
	C657.499207,778.685303 654.493774,776.507568 654.108887,772.484131 
	C653.809753,769.356934 654.126160,766.175049 653.930176,763.032349 
	C653.775269,760.548218 655.373901,757.056519 650.831116,756.494812 
	C650.752625,756.485107 650.564636,753.938538 651.118591,752.971436 
	C652.171387,751.133423 653.724915,749.582153 654.754639,747.507141 
	C658.590759,745.236572 659.964722,747.261841 660.087158,751.651855 
z"/>
<path fill="#FFFDFB" opacity="1.000000" stroke="none" 
	d="
M330.224182,772.328430 
	C331.597687,773.952454 332.735046,775.201904 333.872375,776.451355 
	C332.285400,776.964417 330.104919,778.383118 329.229919,777.809692 
	C327.147430,776.444946 324.806061,774.384277 324.179596,772.152710 
	C323.311707,769.060913 323.982452,765.552734 323.875854,762.226562 
	C323.802094,759.924988 324.836365,756.928589 320.867096,756.551819 
	C320.788055,756.544312 320.509003,753.991577 321.053955,753.048523 
	C322.126282,751.193054 323.712921,749.634766 326.033905,746.794495 
	C326.995941,746.564026 329.287506,745.898743 329.699615,749.924011 
	C329.807159,750.974365 331.618958,751.749451 332.185303,752.882263 
	C332.741699,753.995178 332.709869,755.402161 332.936157,756.680115 
	C328.394043,756.971619 329.663147,760.440369 329.616425,763.010376 
	C329.562256,765.988342 329.849152,768.972473 330.224182,772.328430 
z"/>
<path fill="#FFFBF8" opacity="1.000000" stroke="none" 
	d="
M448.013672,747.321350 
	C448.019257,757.561279 448.019257,767.332886 448.019257,777.171570 
	C444.010284,778.355164 441.911102,778.074463 442.020569,773.442139 
	C442.247406,763.844421 442.089020,754.237610 442.089020,744.300049 
	C444.849548,744.433777 447.778107,742.386841 448.013672,747.321350 
z"/>
<path fill="#FFF9F4" opacity="1.000000" stroke="none" 
	d="
M288.093506,761.629395 
	C288.042725,766.226135 288.214996,770.392761 287.898102,774.521851 
	C287.810120,775.668274 286.271484,776.703369 285.398407,777.789673 
	C284.329224,776.711487 282.388672,775.674622 282.335297,774.548340 
	C282.036713,768.250732 282.062561,761.926025 282.325531,755.625183 
	C282.369385,754.574951 284.122620,753.596008 285.085938,752.584106 
	C287.563904,757.198608 294.062714,747.534485 295.557770,755.537720 
	C295.641937,755.988159 295.385925,756.502136 295.468689,756.091675 
	C292.639404,758.055847 290.385559,759.620483 288.093506,761.629395 
z"/>
<path fill="#FFFEFD" opacity="1.000000" stroke="none" 
	d="
M710.744629,746.258606 
	C711.675354,744.578552 712.603699,743.366638 713.532104,742.154785 
	C714.400146,743.412964 715.991028,744.654480 716.020630,745.932068 
	C716.235840,755.237854 716.235229,764.553101 716.024963,773.859131 
	C715.995361,775.167542 714.453979,776.441772 713.612427,777.731812 
	C712.656616,776.375061 710.911682,775.040344 710.873047,773.657959 
	C710.622498,764.686707 710.743225,755.705078 710.744629,746.258606 
z"/>
<path fill="#FFFEFD" opacity="1.000000" stroke="none" 
	d="
M493.718506,758.007202 
	C493.722504,754.189636 493.464569,750.838074 493.863800,747.566589 
	C494.017395,746.307800 495.666656,745.231628 496.634430,744.072205 
	C497.515717,745.152039 499.135712,746.214539 499.161621,747.314514 
	C499.372528,756.272583 499.394012,765.240540 499.159607,774.197266 
	C499.128204,775.398438 497.346527,776.553772 496.375366,777.730347 
	C495.491852,776.467407 493.922119,775.244324 493.845886,773.934387 
	C493.547485,768.806213 493.720764,763.650635 493.718506,758.007202 
z"/>
<path fill="#FFFEFD" opacity="1.000000" stroke="none" 
	d="
M587.878662,769.904907 
	C587.879822,765.262024 587.646179,761.082886 588.010193,756.956482 
	C588.136780,755.521484 589.741882,754.216919 590.671753,752.852783 
	C591.545471,754.293823 593.090942,755.697815 593.172974,757.182678 
	C593.475281,762.655029 593.484680,768.165527 593.161804,773.635559 
	C593.078308,775.049805 591.380920,776.368774 590.424805,777.731506 
	C589.577393,776.448486 588.502197,775.253723 587.958862,773.852783 
	C587.566223,772.840210 587.880005,771.553711 587.878662,769.904907 
z"/>
<path fill="#FFFEFD" opacity="1.000000" stroke="none" 
	d="
M364.836121,761.064087 
	C364.856567,758.747009 364.597076,756.851807 365.012482,755.118408 
	C365.229370,754.213257 366.632324,753.008423 367.501953,753.006470 
	C368.386414,753.004456 370.020416,754.291992 370.043152,755.053223 
	C370.246490,761.861389 370.250122,768.680481 370.053223,775.488831 
	C370.030853,776.261658 368.199860,777.742371 367.579773,777.568298 
	C366.517853,777.270325 365.040466,775.968323 364.980225,775.009827 
	C364.699249,770.538879 364.843811,766.041199 364.836121,761.064087 
z"/>
<path fill="#FFF5EE" opacity="1.000000" stroke="none" 
	d="
M367.880798,743.248535 
	C368.936707,744.696533 369.631989,746.098511 370.327301,747.500427 
	C369.208954,748.003174 368.073700,748.919250 366.977753,748.874451 
	C366.138916,748.840210 364.555634,747.155457 364.666595,746.953308 
	C365.414459,745.591431 366.526276,744.429321 367.880798,743.248535 
z"/>
<path fill="#FFF5EE" opacity="1.000000" stroke="none" 
	d="
M593.647949,746.892700 
	C591.819946,749.596680 589.760864,749.995117 588.076904,747.508301 
	C587.584167,746.780579 588.201965,744.337952 589.002197,743.874023 
	C591.645508,742.341675 593.283997,743.635925 593.647949,746.892700 
z"/>
<path fill="#FFAA6B" opacity="1.000000" stroke="none" 
	d="
M662.948364,598.701294 
	C678.997375,591.862488 692.227783,599.841064 693.031921,616.779053 
	C693.480713,626.231995 693.215149,635.719971 693.206299,645.192139 
	C693.205261,646.313599 693.152893,647.729004 692.515076,648.511902 
	C682.541443,660.755493 667.861633,662.148560 658.399475,651.804871 
	C648.318054,640.784180 648.264221,613.920105 658.087402,602.744690 
	C659.383240,601.270508 661.101562,600.167725 662.948364,598.701294 
z"/>
<path fill="#FFA96A" opacity="1.000000" stroke="none" 
	d="
M692.975830,591.021667 
	C692.960205,591.037354 693.361511,591.130005 693.361511,591.130005 
	C693.361511,591.130005 693.065857,591.194885 693.043091,591.083740 
	C693.020264,590.972656 692.991394,591.005981 692.975830,591.021667 
z"/>
<path fill="#FFAA6C" opacity="1.000000" stroke="none" 
	d="
M604.770630,602.441162 
	C606.173889,606.813354 607.385498,610.862366 608.820007,615.656128 
	C595.570374,615.656128 583.545471,615.656128 571.516113,615.656128 
	C571.021118,608.721436 577.153503,599.448608 584.149292,596.536743 
	C591.551453,593.455627 599.111816,595.521057 604.770630,602.441162 
z"/>
<path fill="#FFAA6C" opacity="1.000000" stroke="none" 
	d="
M310.650635,615.739502 
	C310.296143,605.680054 319.038757,595.935730 328.524567,595.181702 
	C339.792755,594.285950 348.031342,603.714478 346.168121,615.935242 
	C334.514862,615.935242 322.780243,615.935242 310.650635,615.739502 
z"/>
<path fill="#FFAD71" opacity="1.000000" stroke="none" 
	d="
M575.216797,758.033203 
	C571.684753,759.081787 568.439636,759.819885 564.598511,760.693604 
	C564.598511,756.213196 564.598511,752.857666 564.598511,749.561340 
	C574.482605,747.626648 577.618774,750.060669 575.216797,758.033203 
z"/>
<path fill="#FFAC6F" opacity="1.000000" stroke="none" 
	d="
M614.395996,771.079651 
	C611.747192,771.775635 607.867981,773.159058 607.220398,772.247253 
	C605.482422,769.800110 604.370300,766.343384 604.480225,763.341553 
	C604.557617,761.230591 606.603394,758.405029 608.557617,757.330688 
	C611.623047,755.645447 614.775879,758.113281 614.911316,761.807434 
	C615.019958,764.771179 614.744324,767.748901 614.395996,771.079651 
z"/>
<path fill="#FFAC6F" opacity="1.000000" stroke="none" 
	d="
M418.079071,762.353943 
	C418.081024,764.625122 418.554291,766.628113 417.953491,768.227600 
	C417.250519,770.098938 415.706665,772.887634 414.356110,772.988770 
	C412.410370,773.134583 409.126129,771.657898 408.538361,770.081238 
	C407.521240,767.353027 407.459778,763.810547 408.314301,761.011658 
	C408.840027,759.289490 411.682587,757.522400 413.714203,757.194092 
	C416.543579,756.736816 418.183136,758.864807 418.079071,762.353943 
z"/>
<path fill="#FFAF74" opacity="1.000000" stroke="none" 
	d="
M687.493408,749.165283 
	C690.051453,748.975525 692.540649,748.257385 694.264343,749.101746 
	C696.450745,750.172791 698.943542,752.220215 699.622986,754.376404 
	C700.557068,757.340637 698.440552,759.541504 695.164734,760.329285 
	C686.901855,762.316406 684.415039,758.971924 687.493408,749.165283 
z"/>
<path fill="#FFAF74" opacity="1.000000" stroke="none" 
	d="
M736.077515,770.455505 
	C735.267578,771.526855 734.608215,772.706360 733.849365,772.774292 
	C732.001587,772.939758 729.962402,772.944397 728.306519,772.266235 
	C727.677429,772.008606 727.312561,768.817810 727.817749,768.489929 
	C729.631592,767.312622 731.833984,766.451843 733.968140,766.231201 
	C734.568115,766.169128 735.437256,768.710754 736.077515,770.455505 
z"/>
<path fill="#FFAD71" opacity="1.000000" stroke="none" 
	d="
M271.317993,758.881836 
	C272.637573,761.727600 271.949158,763.014160 269.079834,762.931335 
	C266.938751,762.869507 264.794434,762.919128 262.630402,762.919128 
	C263.017365,756.937988 265.945038,755.544128 271.317993,758.881836 
z"/>
<path fill="#FFAF74" opacity="1.000000" stroke="none" 
	d="
M779.995117,757.823120 
	C785.910156,756.355713 787.210205,757.233826 787.539551,762.678833 
	C784.477844,762.678833 781.430786,762.678833 777.489929,762.678833 
	C778.394958,760.769897 779.034363,759.421143 779.995117,757.823120 
z"/>
</svg>